<svg width="27" height="26" viewBox="0 0 27 26" fill="none" xmlns="http://www.w3.org/2000/svg">
<path d="M5.68302 25.1645C4.30486 25.1647 2.9819 24.6229 1.99969 23.6562L1.89136 23.5479C1.39786 23.0663 1.00574 22.4909 0.738109 21.8554C0.470475 21.22 0.332741 20.5374 0.333023 19.8479C0.331279 19.1014 0.477696 18.362 0.763789 17.6725C1.04988 16.983 1.46996 16.3572 1.99969 15.8312L14.9164 3.0562C16.2287 1.68975 18.0254 0.893491 19.9192 0.838937C21.813 0.784382 23.6525 1.4759 25.0414 2.76453C25.6677 3.38936 26.1635 4.13262 26.4997 4.95099C26.8359 5.76936 27.0059 6.64647 26.9997 7.5312C26.9923 8.51928 26.7897 9.49617 26.4036 10.4057C26.0174 11.3153 25.4554 12.1395 24.7497 12.8312L13.1414 24.3312C13.0692 24.4283 12.9768 24.5085 12.8705 24.5662C12.7642 24.624 12.6467 24.6579 12.526 24.6657C12.4053 24.6734 12.2843 24.6548 12.1715 24.6111C12.0588 24.5674 11.9568 24.4997 11.8729 24.4126C11.7889 24.3256 11.7249 24.2213 11.6852 24.107C11.6456 23.9928 11.6313 23.8712 11.6434 23.7509C11.6555 23.6305 11.6936 23.5143 11.7551 23.4101C11.8166 23.306 11.9001 23.2165 11.9997 23.1479L23.5747 11.6479C24.1244 11.1113 24.5627 10.4714 24.8645 9.76491C25.1662 9.05845 25.3254 8.29936 25.333 7.5312C25.3391 6.8664 25.2125 6.20708 24.9606 5.5918C24.7088 4.97652 24.3368 4.41764 23.8664 3.94786C22.7895 2.96692 21.3707 2.44788 19.9151 2.50243C18.4594 2.55697 17.0834 3.18075 16.083 4.23953L3.20802 17.0145C2.82861 17.3829 2.52637 17.8232 2.31891 18.3097C2.11145 18.7961 2.00293 19.319 1.99969 19.8479C1.99791 20.3122 2.08833 20.7723 2.26571 21.2015C2.44309 21.6306 2.7039 22.0203 3.03302 22.3479L3.14136 22.4562C3.88698 23.1428 4.8724 23.5092 5.88548 23.4765C6.89856 23.4437 7.85827 23.0145 8.55802 22.2812L19.683 11.2812C19.8934 11.0685 20.0593 10.8159 20.1709 10.5383C20.2825 10.2607 20.3376 9.96368 20.333 9.66453C20.3349 9.4047 20.285 9.1471 20.1862 8.90674C20.0875 8.66638 19.942 8.44807 19.758 8.26453C19.3372 7.87862 18.7815 7.67368 18.2108 7.69395C17.6402 7.71422 17.1004 7.95807 16.708 8.37286L9.04136 15.9729C8.88444 16.1287 8.67205 16.2158 8.45091 16.215C8.22977 16.2142 8.018 16.1256 7.86219 15.9687C7.70638 15.8118 7.61928 15.5994 7.62006 15.3783C7.62084 15.1571 7.70944 14.9453 7.86636 14.7895L15.5664 7.16453C16.2722 6.44147 17.2339 6.02486 18.2442 6.00459C19.2544 5.98432 20.2321 6.36202 20.9664 7.0562C21.304 7.39994 21.5694 7.80784 21.7469 8.25582C21.9244 8.7038 22.0103 9.18279 21.9997 9.66453C21.9988 10.1833 21.8944 10.6967 21.6927 11.1746C21.4909 11.6525 21.1958 12.0854 20.8247 12.4479L9.73302 23.4812C8.65793 24.5546 7.20222 25.1596 5.68302 25.1645Z" fill="white"/>
</svg>
