<svg width="26" height="20" viewBox="0 0 26 20" fill="none" xmlns="http://www.w3.org/2000/svg">
<path fill-rule="evenodd" clip-rule="evenodd" d="M0.949219 2.90051C0.949219 1.29968 2.24694 0.00195312 3.84777 0.00195312H17.9032C19.504 0.00195312 20.8017 1.29968 20.8017 2.9005V9.92948C20.7696 9.92896 20.7375 9.92869 20.7053 9.92869C17.5036 9.92869 14.9082 12.5241 14.9082 15.7258C14.9082 16.4127 15.0276 17.0717 15.2469 17.6831H3.84777C2.24694 17.6831 0.949219 16.3854 0.949219 14.7846V2.90051ZM4.71459 2.32C3.99422 2.32 3.41024 2.90397 3.41024 3.62434C3.41024 4.34472 3.99422 4.92869 4.71459 4.92869H17.1784C17.8987 4.92869 18.4827 4.34472 18.4827 3.62434C18.4827 2.90397 17.8987 2.32 17.1784 2.32H4.71459Z" fill="#D9D9D9"/>
<path d="M15.8333 12.6094C14.4259 14.7833 14.9574 16.9089 15.2956 17.6818H3.70135C0.570914 17.7978 0.947821 15.5079 0.94776 12.6094H15.8333Z" fill="#8B8B8B"/>
<path d="M25.1507 15.6525C25.1507 18.0538 23.2041 20.0003 20.8029 20.0003C18.4017 20.0003 16.4551 18.0538 16.4551 15.6525C16.4551 13.2513 18.4017 11.3047 20.8029 11.3047C23.2041 11.3047 25.1507 13.2513 25.1507 15.6525Z" fill="#D9D9D9"/>
<path fill-rule="evenodd" clip-rule="evenodd" d="M23.6892 13.6379C23.8891 13.8284 23.8969 14.1449 23.7064 14.3448L20.8079 17.3883L20.5059 17.7054L20.1517 17.4478L18.5575 16.2884C18.3342 16.126 18.2848 15.8133 18.4472 15.59C18.6096 15.3666 18.9224 15.3173 19.1457 15.4797L20.3857 16.3815L22.9823 13.6552C23.1727 13.4552 23.4892 13.4475 23.6892 13.6379Z" fill="black"/>
<path d="M7.1787 15.2172C7.1787 15.2972 6.14052 15.3621 4.85986 15.3621C3.5792 15.3621 2.54102 15.507 2.54102 15.2172C2.54102 15.1372 3.5792 15.0723 4.85986 15.0723C6.14052 15.0723 7.1787 15.1372 7.1787 15.2172Z" fill="url(#paint0_linear_596_635)"/>
<path d="M8.04784 14.6754C8.04784 14.5953 7.00966 14.5305 5.729 14.5305C4.44834 14.5305 3.41016 14.3855 3.41016 14.6754C3.41016 14.7554 4.44834 14.8203 5.729 14.8203C7.00966 14.8203 8.04784 14.7554 8.04784 14.6754Z" fill="url(#paint1_linear_596_635)"/>
<path d="M8.62794 14.6391C8.62794 14.7191 9.66612 14.784 10.9468 14.784C12.2274 14.784 13.2656 14.9289 13.2656 14.6391C13.2656 14.559 12.2274 14.4941 10.9468 14.4941C9.66612 14.4941 8.62794 14.559 8.62794 14.6391Z" fill="url(#paint2_linear_596_635)"/>
<path d="M8.91896 15.2172C8.91896 15.2972 9.95714 15.3621 11.2378 15.3621C12.5185 15.3621 13.5566 15.507 13.5566 15.2172C13.5566 15.1372 12.5185 15.0723 11.2378 15.0723C9.95714 15.0723 8.91896 15.1372 8.91896 15.2172Z" fill="url(#paint3_linear_596_635)"/>
<path fill-rule="evenodd" clip-rule="evenodd" d="M2.62129 10.4237C2.42445 10.7048 2.20201 11.0225 2.20201 11.7405C2.20201 11.9914 2.18463 12.2944 2.16612 12.617C2.09558 13.8469 2.00868 15.362 2.8056 15.362C3.81159 15.362 4.01288 15.362 4.21407 14.5572H7.99689V14.5573H11.8196C12.0208 15.3621 12.2221 15.3621 13.2281 15.3621C14.025 15.3621 13.9381 13.847 13.8676 12.6171C13.8491 12.2945 13.8317 11.9914 13.8317 11.7406C13.8317 11.0225 13.6093 10.7049 13.4124 10.4237C13.3445 10.3268 13.2797 10.2341 13.228 10.1309C13.3287 10.0303 13.4795 9.98002 13.6304 9.92972C13.7813 9.87942 13.9322 9.82912 14.0328 9.72852C14.234 9.52732 13.6304 9.32612 13.228 9.32612C12.9061 9.32612 12.8257 9.79558 12.8257 9.92972C12.8075 9.8933 12.7754 9.81434 12.7287 9.6993C12.6034 9.39072 12.3726 8.82248 12.0208 8.119C11.5408 7.15894 9.16523 7.1798 8.01717 7.31185C6.86935 7.17973 4.49299 7.15869 4.01288 8.11893C3.66113 8.82242 3.43034 9.39065 3.30501 9.69923C3.25829 9.81427 3.22622 9.89322 3.20801 9.92964C3.20801 9.79551 3.12761 9.32605 2.80569 9.32605C2.4033 9.32605 1.7997 9.52725 2.0009 9.72845C2.1015 9.82905 2.25239 9.87935 2.40329 9.92965C2.55417 9.97995 2.70506 10.0302 2.80569 10.1308C2.75406 10.2341 2.6892 10.3267 2.62129 10.4237Z" fill="#030218"/>
<path d="M4.21505 11.3371L3.00786 10.7335C2.68595 10.5725 2.60547 10.9347 2.60547 11.1359C2.60547 11.7395 3.00786 11.9407 4.01385 11.9407C4.81864 11.9407 4.48331 11.5383 4.21505 11.3371Z" fill="#F1EDED" stroke="black" stroke-width="0.201197" stroke-linecap="round"/>
<path d="M11.8201 11.3371L13.0273 10.7335C13.3492 10.5725 13.4297 10.9347 13.4297 11.1359C13.4297 11.7395 13.0273 11.9407 12.0213 11.9407C11.2165 11.9407 11.5518 11.5383 11.8201 11.3371Z" fill="#F1EDED" stroke="black" stroke-width="0.201197" stroke-linecap="round"/>
<path fill-rule="evenodd" clip-rule="evenodd" d="M7.9757 12.9473H4.64386C4.5033 12.9473 4.26434 13.0384 4.43302 13.4029C4.64386 13.8586 5.0656 14.0865 5.27645 14.0865L7.97565 14.0865H10.7167C10.9275 14.0865 11.3492 13.8586 11.5601 13.4029C11.7288 13.0384 11.4898 12.9473 11.3492 12.9473H8.0174H7.9757Z" fill="#F1EDED"/>
<path d="M4.43302 13.4029L4.45128 13.3945L4.43302 13.4029ZM5.27645 14.0865V14.0663V14.0865ZM7.97565 14.0865V14.1066V14.0865ZM11.5601 13.4029L11.5784 13.4114V13.4114L11.5601 13.4029ZM4.64386 12.9674H7.9757V12.9271H4.64386V12.9674ZM4.45128 13.3945C4.36855 13.2157 4.38876 13.1111 4.43801 13.0512C4.4888 12.9894 4.57648 12.9674 4.64386 12.9674V12.9271C4.57068 12.9271 4.4686 12.9507 4.40694 13.0256C4.34374 13.1024 4.3288 13.2256 4.41476 13.4114L4.45128 13.3945ZM5.27645 14.0663C5.17683 14.0663 5.02278 14.0118 4.86649 13.8993C4.71084 13.7871 4.55509 13.6189 4.45128 13.3945L4.41476 13.4114C4.52179 13.6427 4.68233 13.8162 4.84297 13.9319C5.00298 14.0472 5.16522 14.1066 5.27645 14.1066V14.0663ZM7.97565 14.0663L5.27645 14.0663V14.1066L7.97565 14.1066V14.0663ZM7.97565 14.1066H10.7167V14.0663H7.97565V14.1066ZM10.7167 14.1066C10.8279 14.1066 10.9901 14.0472 11.1501 13.9319C11.3108 13.8162 11.4713 13.6427 11.5784 13.4114L11.5418 13.3945C11.438 13.6189 11.2823 13.7871 11.1266 13.8993C10.9703 14.0118 10.8163 14.0663 10.7167 14.0663V14.1066ZM11.5784 13.4114C11.6643 13.2256 11.6494 13.1024 11.5862 13.0256C11.5245 12.9507 11.4224 12.9271 11.3492 12.9271V12.9674C11.4166 12.9674 11.5043 12.9894 11.5551 13.0512C11.6044 13.1111 11.6246 13.2157 11.5418 13.3945L11.5784 13.4114ZM11.3492 12.9271H8.0174V12.9674H11.3492V12.9271ZM8.0174 12.9271H7.9757V12.9674H8.0174V12.9271Z" fill="black"/>
<path fill-rule="evenodd" clip-rule="evenodd" d="M7.99771 7.91797H5.62304C5.35478 7.91797 4.77801 7.99845 4.61705 8.32036C4.57939 8.39569 4.52058 8.49921 4.4525 8.61905C4.15687 9.13944 3.68639 9.9676 4.01346 10.1311H7.99762H8.0375H12.0217C12.3487 9.9676 11.8783 9.13944 11.5826 8.61905C11.5145 8.49921 11.4557 8.39569 11.4181 8.32036C11.2571 7.99845 10.6803 7.91797 10.4121 7.91797H8.03741H7.99771Z" fill="#F1EDED"/>
<path d="M4.61705 8.32036L4.70703 8.36535L4.61705 8.32036ZM4.4525 8.61905L4.53997 8.66874L4.53997 8.66874L4.4525 8.61905ZM4.01346 10.1311L3.96847 10.2211L3.98971 10.2317H4.01346V10.1311ZM12.0217 10.1311V10.2317H12.0454L12.0666 10.2211L12.0217 10.1311ZM11.5826 8.61905L11.4951 8.66874V8.66874L11.5826 8.61905ZM11.4181 8.32036L11.3281 8.36535V8.36535L11.4181 8.32036ZM5.62304 8.01857H7.99771V7.81737H5.62304V8.01857ZM4.70703 8.36535C4.76831 8.2428 4.91806 8.15297 5.10916 8.09467C5.29559 8.03779 5.49665 8.01857 5.62304 8.01857V7.81737C5.48117 7.81737 5.25972 7.83838 5.05045 7.90223C4.84587 7.96464 4.62676 8.07601 4.52708 8.27537L4.70703 8.36535ZM4.53997 8.66874C4.60746 8.54993 4.66789 8.44364 4.70703 8.36535L4.52708 8.27537C4.4909 8.34773 4.4337 8.44848 4.36503 8.56936L4.53997 8.66874ZM4.05845 10.0412C4.02637 10.0251 4.00082 9.99116 4.00307 9.90159C4.00536 9.8105 4.03762 9.68846 4.09323 9.54536C4.20373 9.26103 4.39118 8.93064 4.53997 8.66874L4.36503 8.56936C4.21818 8.82785 4.02258 9.17174 3.9057 9.47247C3.84763 9.62191 3.80511 9.77009 3.80194 9.89654C3.79872 10.0245 3.83702 10.1554 3.96847 10.2211L4.05845 10.0412ZM7.99762 10.0305H4.01346V10.2317H7.99762V10.0305ZM7.99762 10.2317H8.0375V10.0305H7.99762V10.2317ZM8.0375 10.2317H12.0217V10.0305H8.0375V10.2317ZM12.0666 10.2211C12.1981 10.1554 12.2364 10.0245 12.2332 9.89654C12.23 9.77009 12.1875 9.6219 12.1294 9.47247C12.0125 9.17174 11.8169 8.82785 11.6701 8.56936L11.4951 8.66874C11.6439 8.93064 11.8314 9.26103 11.9419 9.54536C11.9975 9.68846 12.0298 9.8105 12.032 9.90159C12.0343 9.99116 12.0088 10.0251 11.9767 10.0412L12.0666 10.2211ZM11.6701 8.56936C11.6014 8.44848 11.5442 8.34773 11.508 8.27537L11.3281 8.36535C11.3672 8.44364 11.4277 8.54993 11.4951 8.66874L11.6701 8.56936ZM11.508 8.27537C11.4084 8.07601 11.1893 7.96464 10.9847 7.90223C10.7754 7.83838 10.5539 7.81737 10.4121 7.81737V8.01857C10.5385 8.01857 10.7395 8.03779 10.926 8.09467C11.1171 8.15297 11.2668 8.2428 11.3281 8.36535L11.508 8.27537ZM10.4121 7.81737H8.03741V8.01857H10.4121V7.81737ZM8.03741 7.81737H7.99771V8.01857H8.03741V7.81737Z" fill="black"/>
<path fill-rule="evenodd" clip-rule="evenodd" d="M7.99763 11.7402H4.81836V12.1426C5.73957 12.34 7.6421 12.6924 8.01758 12.5536C8.39306 12.6924 10.2956 12.34 11.2168 12.1426V11.7402H8.03752H7.99763Z" fill="#F1EDED"/>
<path d="M4.81836 11.7402V11.7201H4.79824V11.7402H4.81836ZM4.81836 12.1426H4.79824V12.1589L4.81414 12.1623L4.81836 12.1426ZM8.01758 12.5536L8.02676 12.5287L8.0106 12.5347L8.01758 12.5536ZM11.2168 12.1426L11.221 12.1623L11.2369 12.1589V12.1426H11.2168ZM11.2168 11.7402H11.2369V11.7201H11.2168V11.7402ZM4.81836 11.7604H7.99763V11.7201H4.81836V11.7604ZM4.83848 12.1426V11.7402H4.79824V12.1426H4.83848ZM8.0106 12.5347C7.96679 12.5509 7.89864 12.5605 7.80936 12.5638C7.72056 12.567 7.6126 12.5639 7.4902 12.5556C7.24542 12.5391 6.94422 12.502 6.62559 12.4543C5.98841 12.3589 5.28291 12.2216 4.82258 12.123L4.81414 12.1623C5.27502 12.2611 5.98139 12.3986 6.61964 12.4941C6.93873 12.5418 7.24114 12.5791 7.48748 12.5958C7.61064 12.6041 7.72011 12.6073 7.81082 12.604C7.90105 12.6007 7.97449 12.591 8.02455 12.5724L8.0106 12.5347ZM8.0106 12.5724C8.06066 12.591 8.1341 12.6007 8.22433 12.604C8.31504 12.6073 8.42452 12.6041 8.54767 12.5958C8.79401 12.5791 9.09642 12.5418 9.41551 12.4941C10.0538 12.3986 10.7601 12.2611 11.221 12.1623L11.2126 12.123C10.7522 12.2216 10.0467 12.3589 9.40956 12.4543C9.09093 12.502 8.78973 12.5391 8.54496 12.5556C8.42255 12.5639 8.31459 12.567 8.22579 12.5638C8.13651 12.5605 8.06836 12.5509 8.02455 12.5347L8.0106 12.5724ZM11.2369 12.1426V11.7402H11.1967V12.1426H11.2369ZM11.2168 11.7201H8.03752V11.7604H11.2168V11.7201ZM8.03752 11.7201H7.99763V11.7604H8.03752V11.7201Z" fill="black"/>
<ellipse cx="3.61138" cy="13.1485" rx="0.402395" ry="0.402395" fill="#F1EDED"/>
<ellipse cx="0.402395" cy="0.402395" rx="0.402395" ry="0.402395" transform="matrix(-1 0 0 1 12.8262 12.7461)" fill="#F1EDED"/>
<path d="M10.4123 8.05078H9.20508L10.2111 10.0628H11.2171L10.4123 8.05078Z" fill="#030218" stroke="black" stroke-width="0.201197" stroke-linecap="round"/>
<path d="M8.60164 8.05078H7.99805L9.00403 10.0628H9.40643L8.60164 8.05078Z" fill="#030218" stroke="black" stroke-width="0.201197" stroke-linecap="round"/>
<path fill-rule="evenodd" clip-rule="evenodd" d="M2.51192 10.1776C2.31508 10.4587 2.09263 10.7764 2.09263 11.4944C2.09263 11.7453 2.07525 12.0483 2.05675 12.3709C1.98621 13.6008 1.89931 15.1159 2.69623 15.1159C3.70221 15.1159 3.9035 15.1159 4.1047 14.3112H7.88752V14.3112H11.7103C11.9115 15.116 12.1128 15.116 13.1187 15.116C13.9157 15.116 13.8288 13.6009 13.7582 12.371C13.7397 12.0484 13.7223 11.7453 13.7223 11.4945C13.7223 10.7764 13.4999 10.4588 13.3031 10.1777C13.2351 10.0807 13.1703 9.98804 13.1186 9.88482C13.2193 9.78423 13.3702 9.73393 13.5211 9.68363C13.6719 9.63333 13.8228 9.58303 13.9234 9.48242C14.1246 9.28123 13.521 9.08003 13.1186 9.08003C12.7967 9.08003 12.7163 9.54949 12.7163 9.68362C12.6981 9.6472 12.6661 9.56825 12.6193 9.45321C12.494 9.14463 12.2632 8.57639 11.9115 7.87291C11.4314 6.91285 9.05586 6.9337 7.9078 7.06576C6.75998 6.93364 4.38362 6.9126 3.9035 7.87283C3.55176 8.57632 3.32097 9.14456 3.19564 9.45314C3.14891 9.56818 3.11685 9.64713 3.09863 9.68355C3.09863 9.54942 3.01823 9.07996 2.69632 9.07996C2.29392 9.07996 1.69033 9.28115 1.89153 9.48235C1.99213 9.58296 2.14302 9.63326 2.29391 9.68356C2.4448 9.73385 2.59568 9.78415 2.69632 9.88475C2.64469 9.98796 2.57983 10.0806 2.51192 10.1776Z" fill="#030218"/>
<path d="M4.10567 11.091L2.89849 10.4874C2.57657 10.3264 2.49609 10.6886 2.49609 10.8898C2.49609 11.4934 2.89849 11.6946 3.90448 11.6946C4.70927 11.6946 4.37394 11.2922 4.10567 11.091Z" fill="#F1EDED" stroke="black" stroke-width="0.201197" stroke-linecap="round"/>
<path d="M11.7107 11.091L12.9179 10.4874C13.2398 10.3264 13.3203 10.6886 13.3203 10.8898C13.3203 11.4934 12.9179 11.6946 11.9119 11.6946C11.1071 11.6946 11.4425 11.2922 11.7107 11.091Z" fill="#F1EDED" stroke="black" stroke-width="0.201197" stroke-linecap="round"/>
<path fill-rule="evenodd" clip-rule="evenodd" d="M7.86633 12.7012H4.53449C4.39392 12.7012 4.15496 12.7923 4.32364 13.1569C4.53449 13.6125 4.95623 13.8404 5.16708 13.8404L7.86628 13.8404H10.6073C10.8181 13.8404 11.2399 13.6125 11.4507 13.1569C11.6194 12.7923 11.3804 12.7012 11.2399 12.7012H7.90803H7.86633Z" fill="#F1EDED"/>
<path d="M4.32364 13.1569L4.3419 13.1484L4.32364 13.1569ZM5.16708 13.8404V13.8203V13.8404ZM7.86628 13.8404V13.8605V13.8404ZM11.4507 13.1569L11.469 13.1653V13.1653L11.4507 13.1569ZM4.53449 12.7213H7.86633V12.6811H4.53449V12.7213ZM4.3419 13.1484C4.25917 12.9696 4.27938 12.865 4.32864 12.8051C4.37943 12.7433 4.46711 12.7213 4.53449 12.7213V12.6811C4.4613 12.6811 4.35922 12.7046 4.29756 12.7795C4.23436 12.8564 4.21943 12.9795 4.30538 13.1653L4.3419 13.1484ZM5.16708 13.8203C5.06746 13.8203 4.9134 13.7657 4.75712 13.6532C4.60147 13.541 4.44572 13.3728 4.3419 13.1484L4.30538 13.1653C4.41241 13.3966 4.57296 13.5701 4.7336 13.6858C4.89361 13.8011 5.05585 13.8605 5.16708 13.8605V13.8203ZM7.86628 13.8203L5.16708 13.8203V13.8605L7.86628 13.8605V13.8203ZM7.86628 13.8605H10.6073V13.8203H7.86628V13.8605ZM10.6073 13.8605C10.7185 13.8605 10.8807 13.8011 11.0408 13.6858C11.2014 13.5701 11.3619 13.3966 11.469 13.1653L11.4325 13.1484C11.3286 13.3728 11.1729 13.541 11.0172 13.6532C10.861 13.7657 10.7069 13.8203 10.6073 13.8203V13.8605ZM11.469 13.1653C11.5549 12.9795 11.54 12.8564 11.4768 12.7795C11.4151 12.7046 11.3131 12.6811 11.2399 12.6811V12.7213C11.3073 12.7213 11.3949 12.7433 11.4457 12.8051C11.495 12.865 11.5152 12.9696 11.4325 13.1484L11.469 13.1653ZM11.2399 12.6811H7.90803V12.7213H11.2399V12.6811ZM7.90803 12.6811H7.86633V12.7213H7.90803V12.6811Z" fill="black"/>
<path fill-rule="evenodd" clip-rule="evenodd" d="M7.88833 7.67188H5.51367C5.2454 7.67188 4.66864 7.75235 4.50768 8.07427C4.47002 8.14959 4.41121 8.25311 4.34313 8.37295C4.04749 8.89335 3.57701 9.72151 3.90409 9.88505H7.88824H7.92813H11.9123C12.2394 9.72151 11.7689 8.89335 11.4732 8.37295C11.4052 8.25311 11.3463 8.14959 11.3087 8.07427C11.1477 7.75235 10.571 7.67188 10.3027 7.67188H7.92804H7.88833Z" fill="#F1EDED"/>
<path d="M4.50768 8.07427L4.59766 8.11926L4.50768 8.07427ZM4.34313 8.37295L4.4306 8.42265L4.4306 8.42265L4.34313 8.37295ZM3.90409 9.88505L3.8591 9.97503L3.88034 9.98565H3.90409V9.88505ZM11.9123 9.88505V9.98565H11.936L11.9573 9.97503L11.9123 9.88505ZM11.4732 8.37295L11.3858 8.42265V8.42265L11.4732 8.37295ZM11.3087 8.07427L11.2187 8.11926V8.11926L11.3087 8.07427ZM5.51367 7.77247H7.88833V7.57128H5.51367V7.77247ZM4.59766 8.11926C4.65893 7.99671 4.80869 7.90688 4.99979 7.84857C5.18621 7.7917 5.38727 7.77247 5.51367 7.77247V7.57128C5.3718 7.57128 5.15034 7.59229 4.94108 7.65613C4.73649 7.71855 4.51738 7.82991 4.4177 8.02928L4.59766 8.11926ZM4.4306 8.42265C4.49809 8.30384 4.55851 8.19755 4.59766 8.11926L4.4177 8.02928C4.38152 8.10164 4.32433 8.20238 4.25566 8.32326L4.4306 8.42265ZM3.94908 9.79507C3.91699 9.77903 3.89145 9.74507 3.8937 9.6555C3.89598 9.56441 3.92824 9.44237 3.98386 9.29926C4.09436 9.01494 4.28181 8.68455 4.4306 8.42265L4.25566 8.32326C4.10881 8.58176 3.9132 8.92564 3.79632 9.22638C3.73825 9.37581 3.69574 9.52399 3.69256 9.65045C3.68935 9.77841 3.72765 9.9093 3.8591 9.97503L3.94908 9.79507ZM7.88824 9.78445H3.90409V9.98565H7.88824V9.78445ZM7.88824 9.98565H7.92813V9.78445H7.88824V9.98565ZM7.92813 9.98565H11.9123V9.78445H7.92813V9.98565ZM11.9573 9.97503C12.0887 9.9093 12.127 9.77841 12.1238 9.65044C12.1206 9.52399 12.0781 9.37581 12.02 9.22638C11.9032 8.92564 11.7076 8.58175 11.5607 8.32326L11.3858 8.42265C11.5346 8.68455 11.722 9.01494 11.8325 9.29926C11.8881 9.44237 11.9204 9.56441 11.9227 9.6555C11.9249 9.74507 11.8994 9.77903 11.8673 9.79507L11.9573 9.97503ZM11.5607 8.32326C11.492 8.20238 11.4348 8.10164 11.3987 8.02928L11.2187 8.11926C11.2579 8.19755 11.3183 8.30384 11.3858 8.42265L11.5607 8.32326ZM11.3987 8.02928C11.299 7.82991 11.0799 7.71855 10.8753 7.65613C10.666 7.59229 10.4446 7.57128 10.3027 7.57128V7.77247C10.4291 7.77247 10.6302 7.7917 10.8166 7.84857C11.0077 7.90688 11.1574 7.99671 11.2187 8.11926L11.3987 8.02928ZM10.3027 7.57128H7.92804V7.77247H10.3027V7.57128ZM7.92804 7.57128H7.88833V7.77247H7.92804V7.57128Z" fill="black"/>
<path fill-rule="evenodd" clip-rule="evenodd" d="M7.88826 11.4941H4.70898V11.8965C5.6302 12.0939 7.53272 12.4463 7.9082 12.3075C8.28368 12.4463 10.1862 12.0939 11.1074 11.8965V11.4941H7.92814H7.88826Z" fill="#F1EDED"/>
<path d="M4.70898 11.4941V11.474H4.68886V11.4941H4.70898ZM4.70898 11.8965H4.68886V11.9128L4.70477 11.9162L4.70898 11.8965ZM7.9082 12.3075L7.91739 12.2826L7.90122 12.2886L7.9082 12.3075ZM11.1074 11.8965L11.1116 11.9162L11.1275 11.9128V11.8965H11.1074ZM11.1074 11.4941H11.1275V11.474H11.1074V11.4941ZM4.70898 11.5143H7.88826V11.474H4.70898V11.5143ZM4.7291 11.8965V11.4941H4.68886V11.8965H4.7291ZM7.90122 12.2886C7.85741 12.3048 7.78927 12.3144 7.69998 12.3177C7.61118 12.3209 7.50322 12.3178 7.38082 12.3095C7.13604 12.293 6.83485 12.2559 6.51622 12.2082C5.87904 12.1129 5.17353 11.9755 4.7132 11.8769L4.70477 11.9162C5.16565 12.015 5.87201 12.1525 6.51027 12.248C6.82936 12.2957 7.13177 12.333 7.37811 12.3497C7.50126 12.358 7.61073 12.3612 7.70145 12.3579C7.79167 12.3546 7.86512 12.3449 7.91518 12.3264L7.90122 12.2886ZM7.90122 12.3264C7.95128 12.3449 8.02473 12.3546 8.11496 12.3579C8.20567 12.3612 8.31514 12.358 8.4383 12.3497C8.68463 12.333 8.98705 12.2957 9.30614 12.248C9.94439 12.1525 10.6508 12.015 11.1116 11.9162L11.1032 11.8769C10.6429 11.9755 9.93736 12.1129 9.30018 12.2082C8.98156 12.2559 8.68036 12.293 8.43558 12.3095C8.31318 12.3178 8.20522 12.3209 8.11642 12.3177C8.02714 12.3144 7.95899 12.3048 7.91518 12.2886L7.90122 12.3264ZM11.1275 11.8965V11.4941H11.0873V11.8965H11.1275ZM11.1074 11.474H7.92814V11.5143H11.1074V11.474ZM7.92814 11.474H7.88826V11.5143H7.92814V11.474Z" fill="black"/>
<ellipse cx="3.502" cy="12.9024" rx="0.402395" ry="0.402395" fill="#F1EDED"/>
<ellipse cx="0.402395" cy="0.402395" rx="0.402395" ry="0.402395" transform="matrix(-1 0 0 1 12.7168 12.5)" fill="#F1EDED"/>
<path d="M10.3029 7.80469H9.0957L10.1017 9.81666H11.1077L10.3029 7.80469Z" fill="#030218" stroke="black" stroke-width="0.201197" stroke-linecap="round"/>
<path d="M8.49226 7.80469H7.88867L8.89466 9.81666H9.29705L8.49226 7.80469Z" fill="#030218" stroke="black" stroke-width="0.201197" stroke-linecap="round"/>
<defs>
<linearGradient id="paint0_linear_596_635" x1="2.54102" y1="15.2172" x2="7.1787" y2="15.2172" gradientUnits="userSpaceOnUse">
<stop/>
<stop offset="1" stop-color="#8B8B8B" stop-opacity="0"/>
</linearGradient>
<linearGradient id="paint1_linear_596_635" x1="3.41016" y1="14.6754" x2="8.04784" y2="14.6754" gradientUnits="userSpaceOnUse">
<stop/>
<stop offset="1" stop-color="#8B8B8B" stop-opacity="0"/>
</linearGradient>
<linearGradient id="paint2_linear_596_635" x1="13.2656" y1="14.6391" x2="8.62794" y2="14.6391" gradientUnits="userSpaceOnUse">
<stop/>
<stop offset="1" stop-color="#8B8B8B" stop-opacity="0"/>
</linearGradient>
<linearGradient id="paint3_linear_596_635" x1="13.5566" y1="15.2172" x2="8.91896" y2="15.2172" gradientUnits="userSpaceOnUse">
<stop/>
<stop offset="1" stop-color="#8B8B8B" stop-opacity="0"/>
</linearGradient>
</defs>
</svg>
