<svg width="25" height="20" viewBox="0 0 25 20" fill="none" xmlns="http://www.w3.org/2000/svg">
<path fill-rule="evenodd" clip-rule="evenodd" d="M0.0986328 2.90051C0.0986328 1.29968 1.39636 0.00195312 2.99718 0.00195312H17.0526C18.6534 0.00195312 19.9512 1.29968 19.9512 2.9005V9.92948C19.9191 9.92896 19.8869 9.92869 19.8547 9.92869C16.653 9.92869 14.0576 12.5241 14.0576 15.7258C14.0576 16.4127 14.177 17.0717 14.3963 17.6831H2.99718C1.39636 17.6831 0.0986328 16.3854 0.0986328 14.7846V2.90051ZM3.86401 2.32C3.14363 2.32 2.55966 2.90397 2.55966 3.62434C2.55966 4.34472 3.14364 4.92869 3.86401 4.92869H16.3278C17.0481 4.92869 17.6321 4.34472 17.6321 3.62434C17.6321 2.90397 17.0481 2.32 16.3278 2.32H3.86401Z" fill="#030218"/>
<path d="M14.9808 12.6094C13.5734 14.7833 14.1049 16.9089 14.4431 17.6818H2.84881C-0.281625 17.7978 0.0952819 15.5079 0.0952212 12.6094H14.9808Z" fill="#8B8B8B"/>
<path d="M24.2982 15.6525C24.2982 18.0538 22.3516 20.0003 19.9504 20.0003C17.5491 20.0003 15.6025 18.0538 15.6025 15.6525C15.6025 13.2513 17.5491 11.3047 19.9504 11.3047C22.3516 11.3047 24.2982 13.2513 24.2982 15.6525Z" fill="#030218"/>
<path fill-rule="evenodd" clip-rule="evenodd" d="M22.8376 13.6379C23.0376 13.8284 23.0453 14.1449 22.8549 14.3448L19.9563 17.3883L19.6543 17.7054L19.3002 17.4478L17.7059 16.2884C17.4826 16.126 17.4332 15.8133 17.5957 15.59C17.7581 15.3666 18.0708 15.3173 18.2941 15.4797L19.5342 16.3815L22.1307 13.6552C22.3212 13.4552 22.6377 13.4475 22.8376 13.6379Z" fill="white"/>
<path d="M6.32713 15.2172C6.32713 15.2972 5.28895 15.3621 4.00829 15.3621C2.72763 15.3621 1.68945 15.507 1.68945 15.2172C1.68945 15.1372 2.72763 15.0723 4.00829 15.0723C5.28895 15.0723 6.32713 15.1372 6.32713 15.2172Z" fill="#030218"/>
<path d="M7.19725 14.6754C7.19725 14.5953 6.15907 14.5305 4.87841 14.5305C3.59775 14.5305 2.55957 14.3855 2.55957 14.6754C2.55957 14.7554 3.59775 14.8203 4.87841 14.8203C6.15907 14.8203 7.19725 14.7554 7.19725 14.6754Z" fill="#030218"/>
<path d="M7.77638 14.6391C7.77638 14.7191 8.81456 14.784 10.0952 14.784C11.3759 14.784 12.4141 14.9289 12.4141 14.6391C12.4141 14.559 11.3759 14.4941 10.0952 14.4941C8.81456 14.4941 7.77638 14.559 7.77638 14.6391Z" fill="#030218"/>
<path d="M8.06642 15.2172C8.06642 15.2972 9.1046 15.3621 10.3853 15.3621C11.6659 15.3621 12.7041 15.507 12.7041 15.2172C12.7041 15.1372 11.6659 15.0723 10.3853 15.0723C9.1046 15.0723 8.06642 15.1372 8.06642 15.2172Z" fill="#030218"/>
<path fill-rule="evenodd" clip-rule="evenodd" d="M1.7707 10.4237C1.57387 10.7048 1.35142 11.0225 1.35142 11.7405C1.35142 11.9914 1.33404 12.2944 1.31554 12.617C1.245 13.8469 1.1581 15.362 1.95502 15.362C2.961 15.362 3.16229 15.362 3.36349 14.5572H7.1463V14.5573H10.9691C11.1703 15.3621 11.3715 15.3621 12.3775 15.3621C13.1744 15.3621 13.0875 13.847 13.017 12.6171C12.9985 12.2945 12.9811 11.9914 12.9811 11.7406C12.9811 11.0225 12.7587 10.7049 12.5618 10.4237C12.4939 10.3268 12.4291 10.2341 12.3774 10.1309C12.4781 10.0303 12.629 9.98002 12.7798 9.92972C12.9307 9.87942 13.0816 9.82912 13.1822 9.72852C13.3834 9.52732 12.7798 9.32612 12.3774 9.32612C12.0555 9.32612 11.9751 9.79558 11.9751 9.92972C11.9569 9.8933 11.9248 9.81434 11.8781 9.6993C11.7528 9.39072 11.522 8.82248 11.1703 8.119C10.6902 7.15894 8.31465 7.1798 7.16659 7.31185C6.01876 7.17973 3.64241 7.15869 3.16229 8.11893C2.81055 8.82242 2.57975 9.39065 2.45442 9.69923C2.4077 9.81427 2.37563 9.89322 2.35742 9.92964C2.35742 9.79551 2.27702 9.32605 1.95511 9.32605C1.55271 9.32605 0.949118 9.52725 1.15032 9.72845C1.25092 9.82905 1.40181 9.87935 1.5527 9.92965C1.70358 9.97995 1.85447 10.0302 1.95511 10.1308C1.90348 10.2341 1.83861 10.3267 1.7707 10.4237Z" fill="#030218"/>
<path d="M3.36349 11.3371L2.1563 10.7335C1.83439 10.5725 1.75391 10.9347 1.75391 11.1359C1.75391 11.7395 2.1563 11.9407 3.16229 11.9407C3.96708 11.9407 3.63175 11.5383 3.36349 11.3371Z" fill="#F1EDED" stroke="black" stroke-width="0.201197" stroke-linecap="round"/>
<path d="M10.9685 11.3371L12.1757 10.7335C12.4976 10.5725 12.5781 10.9347 12.5781 11.1359C12.5781 11.7395 12.1757 11.9407 11.1697 11.9407C10.365 11.9407 10.7003 11.5383 10.9685 11.3371Z" fill="#F1EDED" stroke="black" stroke-width="0.201197" stroke-linecap="round"/>
<path fill-rule="evenodd" clip-rule="evenodd" d="M7.12609 12.9473H3.79425C3.65369 12.9473 3.41473 13.0384 3.58341 13.4029C3.79425 13.8586 4.21599 14.0865 4.42684 14.0865L7.12604 14.0865H9.86705C10.0779 14.0865 10.4996 13.8586 10.7105 13.4029C10.8792 13.0384 10.6402 12.9473 10.4996 12.9473H7.16779H7.12609Z" fill="#F1EDED"/>
<path d="M3.58341 13.4029L3.60167 13.3945L3.58341 13.4029ZM4.42684 14.0865V14.0663V14.0865ZM7.12604 14.0865V14.1066V14.0865ZM10.7105 13.4029L10.7287 13.4114V13.4114L10.7105 13.4029ZM3.79425 12.9674H7.12609V12.9271H3.79425V12.9674ZM3.60167 13.3945C3.51894 13.2157 3.53915 13.1111 3.5884 13.0512C3.63919 12.9894 3.72687 12.9674 3.79425 12.9674V12.9271C3.72107 12.9271 3.61899 12.9507 3.55733 13.0256C3.49413 13.1024 3.4792 13.2256 3.56515 13.4114L3.60167 13.3945ZM4.42684 14.0663C4.32722 14.0663 4.17317 14.0118 4.01688 13.8993C3.86123 13.7871 3.70548 13.6189 3.60167 13.3945L3.56515 13.4114C3.67218 13.6427 3.83272 13.8162 3.99336 13.9319C4.15338 14.0472 4.31561 14.1066 4.42684 14.1066V14.0663ZM7.12604 14.0663L4.42684 14.0663V14.1066L7.12604 14.1066V14.0663ZM7.12604 14.1066H9.86705V14.0663H7.12604V14.1066ZM9.86705 14.1066C9.97828 14.1066 10.1405 14.0472 10.3005 13.9319C10.4612 13.8162 10.6217 13.6427 10.7287 13.4114L10.6922 13.3945C10.5884 13.6189 10.4327 13.7871 10.277 13.8993C10.1207 14.0118 9.96667 14.0663 9.86705 14.0663V14.1066ZM10.7287 13.4114C10.8147 13.2256 10.7998 13.1024 10.7366 13.0256C10.6749 12.9507 10.5728 12.9271 10.4996 12.9271V12.9674C10.567 12.9674 10.6547 12.9894 10.7055 13.0512C10.7547 13.1111 10.7749 13.2157 10.6922 13.3945L10.7287 13.4114ZM10.4996 12.9271H7.16779V12.9674H10.4996V12.9271ZM7.16779 12.9271H7.12609V12.9674H7.16779V12.9271Z" fill="black"/>
<path fill-rule="evenodd" clip-rule="evenodd" d="M7.14712 7.91797H4.77246C4.50419 7.91797 3.92743 7.99845 3.76647 8.32036C3.72881 8.39569 3.67 8.49921 3.60192 8.61905C3.30628 9.13944 2.8358 9.9676 3.16288 10.1311H7.14703H7.18692H11.1711C11.4981 9.9676 11.0277 9.13944 10.732 8.61905C10.6639 8.49921 10.6051 8.39569 10.5675 8.32036C10.4065 7.99845 9.82975 7.91797 9.56149 7.91797H7.18682H7.14712Z" fill="#F1EDED"/>
<path d="M3.76647 8.32036L3.85645 8.36535L3.76647 8.32036ZM3.60192 8.61905L3.68938 8.66874L3.68938 8.66874L3.60192 8.61905ZM3.16288 10.1311L3.11789 10.2211L3.13913 10.2317H3.16288V10.1311ZM11.1711 10.1311V10.2317H11.1948L11.2161 10.2211L11.1711 10.1311ZM10.732 8.61905L10.6446 8.66874V8.66874L10.732 8.61905ZM10.5675 8.32036L10.4775 8.36535V8.36535L10.5675 8.32036ZM4.77246 8.01857H7.14712V7.81737H4.77246V8.01857ZM3.85645 8.36535C3.91772 8.2428 4.06748 8.15297 4.25858 8.09467C4.445 8.03779 4.64606 8.01857 4.77246 8.01857V7.81737C4.63059 7.81737 4.40913 7.83838 4.19987 7.90223C3.99528 7.96464 3.77617 8.07601 3.67649 8.27537L3.85645 8.36535ZM3.68938 8.66874C3.75688 8.54993 3.8173 8.44364 3.85645 8.36535L3.67649 8.27537C3.64031 8.34773 3.58312 8.44848 3.51445 8.56936L3.68938 8.66874ZM3.20787 10.0412C3.17578 10.0251 3.15024 9.99116 3.15249 9.90159C3.15477 9.8105 3.18703 9.68846 3.24265 9.54536C3.35315 9.26103 3.5406 8.93064 3.68938 8.66874L3.51445 8.56936C3.3676 8.82785 3.17199 9.17174 3.05511 9.47247C2.99704 9.62191 2.95453 9.77009 2.95135 9.89654C2.94814 10.0245 2.98644 10.1554 3.11789 10.2211L3.20787 10.0412ZM7.14703 10.0305H3.16288V10.2317H7.14703V10.0305ZM7.14703 10.2317H7.18692V10.0305H7.14703V10.2317ZM7.18692 10.2317H11.1711V10.0305H7.18692V10.2317ZM11.2161 10.2211C11.3475 10.1554 11.3858 10.0245 11.3826 9.89654C11.3794 9.77009 11.3369 9.6219 11.2788 9.47247C11.162 9.17174 10.9663 8.82785 10.8195 8.56936L10.6446 8.66874C10.7933 8.93064 10.9808 9.26103 11.0913 9.54536C11.1469 9.68846 11.1792 9.8105 11.1815 9.90159C11.1837 9.99116 11.1582 10.0251 11.1261 10.0412L11.2161 10.2211ZM10.8195 8.56936C10.7508 8.44848 10.6936 8.34773 10.6575 8.27537L10.4775 8.36535C10.5166 8.44364 10.5771 8.54993 10.6446 8.66874L10.8195 8.56936ZM10.6575 8.27537C10.5578 8.07601 10.3387 7.96464 10.1341 7.90223C9.92481 7.83838 9.70336 7.81737 9.56149 7.81737V8.01857C9.68789 8.01857 9.88894 8.03779 10.0754 8.09467C10.2665 8.15297 10.4162 8.2428 10.4775 8.36535L10.6575 8.27537ZM9.56149 7.81737H7.18682V8.01857H9.56149V7.81737ZM7.18682 7.81737H7.14712V8.01857H7.18682V7.81737Z" fill="black"/>
<path fill-rule="evenodd" clip-rule="evenodd" d="M7.14607 11.7402H3.9668V12.1426C4.88801 12.34 6.79053 12.6924 7.16601 12.5536C7.54149 12.6924 9.44402 12.34 10.3652 12.1426V11.7402H7.18596H7.14607Z" fill="#F1EDED"/>
<path d="M3.9668 11.7402V11.7201H3.94668V11.7402H3.9668ZM3.9668 12.1426H3.94668V12.1589L3.96258 12.1623L3.9668 12.1426ZM7.16601 12.5536L7.1752 12.5287L7.15904 12.5347L7.16601 12.5536ZM10.3652 12.1426L10.3694 12.1623L10.3853 12.1589V12.1426H10.3652ZM10.3652 11.7402H10.3853V11.7201H10.3652V11.7402ZM3.9668 11.7604H7.14607V11.7201H3.9668V11.7604ZM3.98692 12.1426V11.7402H3.94668V12.1426H3.98692ZM7.15904 12.5347C7.11522 12.5509 7.04708 12.5605 6.9578 12.5638C6.869 12.567 6.76104 12.5639 6.63863 12.5556C6.39386 12.5391 6.09266 12.502 5.77403 12.4543C5.13685 12.3589 4.43135 12.2216 3.97101 12.123L3.96258 12.1623C4.42346 12.2611 5.12983 12.3986 5.76808 12.4941C6.08717 12.5418 6.38958 12.5791 6.63592 12.5958C6.75907 12.6041 6.86855 12.6073 6.95926 12.604C7.04949 12.6007 7.12293 12.591 7.17299 12.5724L7.15904 12.5347ZM7.15904 12.5724C7.20909 12.591 7.28254 12.6007 7.37277 12.604C7.46348 12.6073 7.57295 12.6041 7.69611 12.5958C7.94245 12.5791 8.24486 12.5418 8.56395 12.4941C9.2022 12.3986 9.90857 12.2611 10.3694 12.1623L10.361 12.123C9.90068 12.2216 9.19518 12.3589 8.55799 12.4543C8.23937 12.502 7.93817 12.5391 7.69339 12.5556C7.57099 12.5639 7.46303 12.567 7.37423 12.5638C7.28495 12.5605 7.2168 12.5509 7.17299 12.5347L7.15904 12.5724ZM10.3853 12.1426V11.7402H10.3451V12.1426H10.3853ZM10.3652 11.7201H7.18596V11.7604H10.3652V11.7201ZM7.18596 11.7201H7.14607V11.7604H7.18596V11.7201Z" fill="black"/>
<ellipse cx="2.75982" cy="13.1485" rx="0.402395" ry="0.402395" fill="#F1EDED"/>
<ellipse cx="0.402395" cy="0.402395" rx="0.402395" ry="0.402395" transform="matrix(-1 0 0 1 11.9756 12.7461)" fill="#F1EDED"/>
<path d="M9.5607 8.05078H8.35352L9.3595 10.0628H10.3655L9.5607 8.05078Z" fill="#030218" stroke="black" stroke-width="0.201197" stroke-linecap="round"/>
<path d="M7.75008 8.05078H7.14648L8.15247 10.0628H8.55487L7.75008 8.05078Z" fill="#030218" stroke="black" stroke-width="0.201197" stroke-linecap="round"/>
<path fill-rule="evenodd" clip-rule="evenodd" d="M1.66035 10.1776C1.46351 10.4587 1.24107 10.7764 1.24107 11.4944C1.24107 11.7453 1.22369 12.0483 1.20519 12.3709C1.13465 13.6008 1.04775 15.1159 1.84466 15.1159C2.85065 15.1159 3.05194 15.1159 3.25314 14.3112H7.03595V14.3112H10.8587C11.0599 15.116 11.2612 15.116 12.2672 15.116C13.0641 15.116 12.9772 13.6009 12.9067 12.371C12.8881 12.0484 12.8708 11.7453 12.8708 11.4945C12.8708 10.7764 12.6483 10.4588 12.4515 10.1777C12.3836 10.0807 12.3187 9.98804 12.2671 9.88482C12.3677 9.78423 12.5186 9.73393 12.6695 9.68363C12.8204 9.63333 12.9713 9.58303 13.0719 9.48242C13.2731 9.28123 12.6695 9.08003 12.2671 9.08003C11.9452 9.08003 11.8648 9.54949 11.8648 9.68362C11.8466 9.6472 11.8145 9.56825 11.7678 9.45321C11.6424 9.14463 11.4116 8.57639 11.0599 7.87291C10.5799 6.91285 8.2043 6.9337 7.05624 7.06576C5.90841 6.93364 3.53205 6.9126 3.05194 7.87283C2.70019 8.57632 2.4694 9.14456 2.34407 9.45314C2.29735 9.56818 2.26528 9.64713 2.24707 9.68355C2.24707 9.54942 2.16667 9.07996 1.84475 9.07996C1.44236 9.07996 0.838766 9.28115 1.03996 9.48235C1.14057 9.58296 1.29146 9.63326 1.44235 9.68356C1.59323 9.73385 1.74412 9.78415 1.84475 9.88475C1.79313 9.98796 1.72826 10.0806 1.66035 10.1776Z" fill="#030218"/>
<path d="M3.25313 11.091L2.04595 10.4874C1.72403 10.3264 1.64355 10.6886 1.64355 10.8898C1.64355 11.4934 2.04595 11.6946 3.05194 11.6946C3.85673 11.6946 3.5214 11.2922 3.25313 11.091Z" fill="#F1EDED" stroke="black" stroke-width="0.201197" stroke-linecap="round"/>
<path d="M10.8582 11.091L12.0654 10.4874C12.3873 10.3264 12.4678 10.6886 12.4678 10.8898C12.4678 11.4934 12.0654 11.6946 11.0594 11.6946C10.2546 11.6946 10.5899 11.2922 10.8582 11.091Z" fill="#F1EDED" stroke="black" stroke-width="0.201197" stroke-linecap="round"/>
<path fill-rule="evenodd" clip-rule="evenodd" d="M7.01574 12.7012H3.6839C3.54334 12.7012 3.30438 12.7923 3.47305 13.1569C3.6839 13.6125 4.10564 13.8404 4.31649 13.8404L7.01569 13.8404H9.7567C9.96754 13.8404 10.3893 13.6125 10.6001 13.1569C10.7688 12.7923 10.5298 12.7012 10.3893 12.7012H7.05744H7.01574Z" fill="#F1EDED"/>
<path d="M3.47305 13.1569L3.49131 13.1484L3.47305 13.1569ZM4.31649 13.8404V13.8203V13.8404ZM7.01569 13.8404V13.8605V13.8404ZM10.6001 13.1569L10.6184 13.1653V13.1653L10.6001 13.1569ZM3.6839 12.7213H7.01574V12.6811H3.6839V12.7213ZM3.49131 13.1484C3.40859 12.9696 3.4288 12.865 3.47805 12.8051C3.52884 12.7433 3.61652 12.7213 3.6839 12.7213V12.6811C3.61072 12.6811 3.50864 12.7046 3.44697 12.7795C3.38378 12.8564 3.36884 12.9795 3.45479 13.1653L3.49131 13.1484ZM4.31649 13.8203C4.21687 13.8203 4.06281 13.7657 3.90653 13.6532C3.75088 13.541 3.59513 13.3728 3.49131 13.1484L3.45479 13.1653C3.56183 13.3966 3.72237 13.5701 3.88301 13.6858C4.04302 13.8011 4.20526 13.8605 4.31649 13.8605V13.8203ZM7.01569 13.8203L4.31649 13.8203V13.8605L7.01569 13.8605V13.8203ZM7.01569 13.8605H9.7567V13.8203H7.01569V13.8605ZM9.7567 13.8605C9.86793 13.8605 10.0302 13.8011 10.1902 13.6858C10.3508 13.5701 10.5114 13.3966 10.6184 13.1653L10.5819 13.1484C10.4781 13.3728 10.3223 13.541 10.1667 13.6532C10.0104 13.7657 9.85631 13.8203 9.7567 13.8203V13.8605ZM10.6184 13.1653C10.7043 12.9795 10.6894 12.8564 10.6262 12.7795C10.5645 12.7046 10.4625 12.6811 10.3893 12.6811V12.7213C10.4567 12.7213 10.5443 12.7433 10.5951 12.8051C10.6444 12.865 10.6646 12.9696 10.5819 13.1484L10.6184 13.1653ZM10.3893 12.6811H7.05744V12.7213H10.3893V12.6811ZM7.05744 12.6811H7.01574V12.7213H7.05744V12.6811Z" fill="black"/>
<path fill-rule="evenodd" clip-rule="evenodd" d="M7.03677 7.67188H4.6621C4.39384 7.67188 3.81707 7.75235 3.65612 8.07427C3.61846 8.14959 3.55965 8.25311 3.49156 8.37295C3.19593 8.89335 2.72545 9.72151 3.05252 9.88505H7.03668H7.07656H11.0607C11.3878 9.72151 10.9173 8.89335 10.6217 8.37295C10.5536 8.25311 10.4948 8.14959 10.4571 8.07427C10.2962 7.75235 9.7194 7.67188 9.45114 7.67188H7.07647H7.03677Z" fill="#F1EDED"/>
<path d="M3.65612 8.07427L3.7461 8.11926L3.65612 8.07427ZM3.49156 8.37295L3.57903 8.42265L3.57903 8.42265L3.49156 8.37295ZM3.05252 9.88505L3.00754 9.97503L3.02878 9.98565H3.05252V9.88505ZM11.0607 9.88505V9.98565H11.0845L11.1057 9.97503L11.0607 9.88505ZM10.6217 8.37295L10.5342 8.42265V8.42265L10.6217 8.37295ZM10.4571 8.07427L10.3671 8.11926V8.11926L10.4571 8.07427ZM4.6621 7.77247H7.03677V7.57128H4.6621V7.77247ZM3.7461 8.11926C3.80737 7.99671 3.95713 7.90688 4.14823 7.84857C4.33465 7.7917 4.53571 7.77247 4.6621 7.77247V7.57128C4.52024 7.57128 4.29878 7.59229 4.08952 7.65613C3.88493 7.71855 3.66582 7.82991 3.56614 8.02928L3.7461 8.11926ZM3.57903 8.42265C3.64653 8.30384 3.70695 8.19755 3.7461 8.11926L3.56614 8.02928C3.52996 8.10164 3.47277 8.20238 3.40409 8.32326L3.57903 8.42265ZM3.09751 9.79507C3.06543 9.77903 3.03988 9.74507 3.04213 9.6555C3.04442 9.56441 3.07668 9.44237 3.1323 9.29926C3.24279 9.01494 3.43025 8.68455 3.57903 8.42265L3.40409 8.32326C3.25725 8.58176 3.06164 8.92564 2.94476 9.22638C2.88669 9.37581 2.84418 9.52399 2.841 9.65045C2.83779 9.77841 2.87608 9.9093 3.00754 9.97503L3.09751 9.79507ZM7.03668 9.78445H3.05252V9.98565H7.03668V9.78445ZM7.03668 9.98565H7.07656V9.78445H7.03668V9.98565ZM7.07656 9.98565H11.0607V9.78445H7.07656V9.98565ZM11.1057 9.97503C11.2372 9.9093 11.2755 9.77841 11.2722 9.65044C11.2691 9.52399 11.2266 9.37581 11.1685 9.22638C11.0516 8.92564 10.856 8.58175 10.7091 8.32326L10.5342 8.42265C10.683 8.68455 10.8704 9.01494 10.9809 9.29926C11.0366 9.44237 11.0688 9.56441 11.0711 9.6555C11.0734 9.74507 11.0478 9.77903 11.0157 9.79507L11.1057 9.97503ZM10.7091 8.32326C10.6405 8.20238 10.5833 8.10164 10.5471 8.02928L10.3671 8.11926C10.4063 8.19755 10.4667 8.30384 10.5342 8.42265L10.7091 8.32326ZM10.5471 8.02928C10.4474 7.82991 10.2283 7.71855 10.0237 7.65613C9.81446 7.59229 9.59301 7.57128 9.45114 7.57128V7.77247C9.57753 7.77247 9.77859 7.7917 9.96502 7.84857C10.1561 7.90688 10.3059 7.99671 10.3671 8.11926L10.5471 8.02928ZM9.45114 7.57128H7.07647V7.77247H9.45114V7.57128ZM7.07647 7.57128H7.03677V7.77247H7.07647V7.57128Z" fill="black"/>
<path fill-rule="evenodd" clip-rule="evenodd" d="M7.03572 11.4941H3.85645V11.8965C4.77766 12.0939 6.68018 12.4463 7.05566 12.3075C7.43114 12.4463 9.33366 12.0939 10.2549 11.8965V11.4941H7.0756H7.03572Z" fill="#F1EDED"/>
<path d="M3.85645 11.4941V11.474H3.83633V11.4941H3.85645ZM3.85645 11.8965H3.83633V11.9128L3.85223 11.9162L3.85645 11.8965ZM7.05566 12.3075L7.06485 12.2826L7.04869 12.2886L7.05566 12.3075ZM10.2549 11.8965L10.2591 11.9162L10.275 11.9128V11.8965H10.2549ZM10.2549 11.4941H10.275V11.474H10.2549V11.4941ZM3.85645 11.5143H7.03572V11.474H3.85645V11.5143ZM3.87657 11.8965V11.4941H3.83633V11.8965H3.87657ZM7.04869 12.2886C7.00487 12.3048 6.93673 12.3144 6.84744 12.3177C6.75864 12.3209 6.65068 12.3178 6.52828 12.3095C6.2835 12.293 5.98231 12.2559 5.66368 12.2082C5.0265 12.1129 4.321 11.9755 3.86066 11.8769L3.85223 11.9162C4.31311 12.015 5.01947 12.1525 5.65773 12.248C5.97682 12.2957 6.27923 12.333 6.52557 12.3497C6.64872 12.358 6.7582 12.3612 6.84891 12.3579C6.93914 12.3546 7.01258 12.3449 7.06264 12.3264L7.04869 12.2886ZM7.04869 12.3264C7.09874 12.3449 7.17219 12.3546 7.26242 12.3579C7.35313 12.3612 7.4626 12.358 7.58576 12.3497C7.8321 12.333 8.13451 12.2957 8.4536 12.248C9.09185 12.1525 9.79822 12.015 10.2591 11.9162L10.2507 11.8769C9.79033 11.9755 9.08483 12.1129 8.44764 12.2082C8.12902 12.2559 7.82782 12.293 7.58304 12.3095C7.46064 12.3178 7.35268 12.3209 7.26388 12.3177C7.1746 12.3144 7.10645 12.3048 7.06264 12.2886L7.04869 12.3264ZM10.275 11.8965V11.4941H10.2348V11.8965H10.275ZM10.2549 11.474H7.0756V11.5143H10.2549V11.474ZM7.0756 11.474H7.03572V11.5143H7.0756V11.474Z" fill="black"/>
<ellipse cx="2.64947" cy="12.9024" rx="0.402395" ry="0.402395" fill="#F1EDED"/>
<ellipse cx="0.402395" cy="0.402395" rx="0.402395" ry="0.402395" transform="matrix(-1 0 0 1 11.8652 12.5)" fill="#F1EDED"/>
<path d="M9.45035 7.80469H8.24316L9.24915 9.81666H10.2551L9.45035 7.80469Z" fill="#030218" stroke="black" stroke-width="0.201197" stroke-linecap="round"/>
<path d="M7.63973 7.80469H7.03613L8.04212 9.81666H8.44451L7.63973 7.80469Z" fill="#030218" stroke="black" stroke-width="0.201197" stroke-linecap="round"/>
</svg>
