<svg width="24" height="20" viewBox="0 0 24 20" fill="none" xmlns="http://www.w3.org/2000/svg">
<path d="M0 0H24V20H0V0ZM12 5C13.0609 5 14.0783 5.52678 14.8284 6.46447C15.5786 7.40215 16 8.67392 16 10C16 11.3261 15.5786 12.5979 14.8284 13.5355C14.0783 14.4732 13.0609 15 12 15C10.9391 15 9.92172 14.4732 9.17157 13.5355C8.42143 12.5979 8 11.3261 8 10C8 8.67392 8.42143 7.40215 9.17157 6.46447C9.92172 5.52678 10.9391 5 12 5ZM5.33333 3.33333C5.33333 4.21739 5.05238 5.06523 4.55229 5.69036C4.05219 6.31548 3.37391 6.66667 2.66667 6.66667V13.3333C3.37391 13.3333 4.05219 13.6845 4.55229 14.3096C5.05238 14.9348 5.33333 15.7826 5.33333 16.6667H18.6667C18.6667 15.7826 18.9476 14.9348 19.4477 14.3096C19.9478 13.6845 20.6261 13.3333 21.3333 13.3333V6.66667C20.6261 6.66667 19.9478 6.31548 19.4477 5.69036C18.9476 5.06523 18.6667 4.21739 18.6667 3.33333H5.33333Z" fill="black"/>
</svg>
