<svg width="31" height="30" viewBox="0 0 31 30" fill="none" xmlns="http://www.w3.org/2000/svg">
<g opacity="0.8">
<path d="M5.65625 26.25C4.78601 26.25 3.95141 25.9043 3.33606 25.2889C2.7207 24.6736 2.375 23.839 2.375 22.9688V18.2812C2.375 17.9083 2.52316 17.5506 2.78688 17.2869C3.0506 17.0232 3.40829 16.875 3.78125 16.875C4.15421 16.875 4.5119 17.0232 4.77562 17.2869C5.03934 17.5506 5.1875 17.9083 5.1875 18.2812V22.9688C5.1875 23.2275 5.3975 23.4375 5.65625 23.4375H25.3438C25.4681 23.4375 25.5873 23.3881 25.6752 23.3002C25.7631 23.2123 25.8125 23.0931 25.8125 22.9688V18.2812C25.8125 17.9083 25.9607 17.5506 26.2244 17.2869C26.4881 17.0232 26.8458 16.875 27.2188 16.875C27.5917 16.875 27.9494 17.0232 28.2131 17.2869C28.4768 17.5506 28.625 17.9083 28.625 18.2812V22.9688C28.625 23.839 28.2793 24.6736 27.6639 25.2889C27.0486 25.9043 26.214 26.25 25.3438 26.25H5.65625Z" fill="black"/>
<path d="M14.0939 14.4169V3.75C14.0939 3.37704 14.242 3.01935 14.5057 2.75563C14.7695 2.49191 15.1271 2.34375 15.5001 2.34375C15.8731 2.34375 16.2307 2.49191 16.4945 2.75563C16.7582 3.01935 16.9064 3.37704 16.9064 3.75V14.4169L20.6001 10.725C20.7306 10.5945 20.8855 10.491 21.056 10.4204C21.2265 10.3497 21.4093 10.3134 21.5939 10.3134C21.7784 10.3134 21.9612 10.3497 22.1317 10.4204C22.3022 10.491 22.4571 10.5945 22.5876 10.725C22.7181 10.8555 22.8216 11.0104 22.8922 11.1809C22.9629 11.3514 22.9992 11.5342 22.9992 11.7188C22.9992 11.9033 22.9629 12.0861 22.8922 12.2566C22.8216 12.4271 22.7181 12.582 22.5876 12.7125L16.4938 18.8062C16.3634 18.9369 16.2085 19.0405 16.038 19.1112C15.8675 19.1819 15.6847 19.2183 15.5001 19.2183C15.3155 19.2183 15.1327 19.1819 14.9622 19.1112C14.7917 19.0405 14.6368 18.9369 14.5064 18.8062L8.4126 12.7125C8.2821 12.582 8.17858 12.4271 8.10795 12.2566C8.03733 12.0861 8.00098 11.9033 8.00098 11.7188C8.00098 11.5342 8.03733 11.3514 8.10795 11.1809C8.17858 11.0104 8.2821 10.8555 8.4126 10.725C8.5431 10.5945 8.69803 10.491 8.86854 10.4204C9.03905 10.3497 9.22179 10.3134 9.40635 10.3134C9.59091 10.3134 9.77366 10.3497 9.94416 10.4204C10.1147 10.491 10.2696 10.5945 10.4001 10.725L14.0939 14.4169Z" fill="black"/>
</g>
</svg>
