<svg width="25" height="24" viewBox="0 0 25 24" fill="none" xmlns="http://www.w3.org/2000/svg">
<path d="M12.5 14V7M12.5 7L15.5 10M12.5 7L9.5 10" stroke="white" stroke-width="0.8" stroke-linecap="round" stroke-linejoin="round"/>
<path d="M16.5 17H8.5M22.5 12C22.5 7.286 22.5 4.929 21.035 3.465C19.572 2 17.214 2 12.5 2C7.786 2 5.429 2 3.964 3.465C2.5 4.928 2.5 7.286 2.5 12C2.5 16.714 2.5 19.071 3.964 20.536C5.43 22 7.786 22 12.5 22C17.214 22 19.571 22 21.035 20.536C22.009 19.562 22.335 18.193 22.445 16" stroke="white" stroke-width="0.8" stroke-linecap="round"/>
</svg>
