<svg width="30" height="26" viewBox="0 0 30 26" fill="none" xmlns="http://www.w3.org/2000/svg">
<g clip-path="url(#clip0_1043_7806)">
<path d="M5.45367 25.377V23.7223C5.45367 23.0879 5.09344 22.6744 4.47598 22.6744C4.1673 22.6744 3.83285 22.7847 3.60129 23.1432C3.42129 22.8398 3.16406 22.6744 2.77816 22.6744C2.52082 22.6744 2.26371 22.757 2.05781 23.0604V22.7295H1.51758V25.377H2.05781V23.9153C2.05781 23.4466 2.28938 23.2259 2.64961 23.2259C3.00961 23.2259 3.18984 23.4741 3.18984 23.9153V25.377H3.73008V23.9153C3.73008 23.4466 3.98719 23.2259 4.32164 23.2259C4.68188 23.2259 4.86188 23.4741 4.86188 23.9153V25.377H5.45367ZM13.4542 22.7295H12.5796V21.9298H12.0394V22.7295H11.5506V23.2534H12.0393V24.4669C12.0393 25.0737 12.2708 25.4321 12.8883 25.4321C13.1198 25.4321 13.377 25.3495 13.5572 25.2392L13.4027 24.7427C13.2484 24.853 13.0684 24.8806 12.9397 24.8806C12.6825 24.8806 12.5796 24.7152 12.5796 24.4393V23.2534H13.4542V22.7295ZM18.0334 22.6742C17.7247 22.6742 17.5189 22.8398 17.3903 23.0604V22.7295H16.85V25.377H17.3903V23.8878C17.3903 23.4466 17.5703 23.1984 17.9047 23.1984C18.0076 23.1984 18.1363 23.226 18.2392 23.2535L18.3935 22.702C18.2906 22.6744 18.1363 22.6744 18.0334 22.6744M11.1132 22.9502C10.8559 22.7571 10.4958 22.6745 10.1099 22.6745C9.49254 22.6745 9.08098 23.0054 9.08098 23.5294C9.08098 23.9707 9.38965 24.2188 9.92988 24.3016L10.1871 24.3293C10.4701 24.3843 10.6245 24.4671 10.6245 24.605C10.6245 24.798 10.4187 24.9359 10.0584 24.9359C9.6982 24.9359 9.41531 24.798 9.23519 24.6602L8.97797 25.1014C9.26098 25.322 9.64688 25.4323 10.0327 25.4323C10.753 25.4323 11.1647 25.0739 11.1647 24.5774C11.1647 24.1085 10.8302 23.8603 10.3157 23.7776L10.0584 23.75C9.82688 23.7223 9.64687 23.6673 9.64687 23.5019C9.64687 23.3088 9.82687 23.1985 10.1099 23.1985C10.4187 23.1985 10.7273 23.3363 10.8817 23.4191L11.1132 22.9502ZM25.4681 22.6745C25.1593 22.6745 24.9536 22.8399 24.8249 23.0605V22.7296H24.2846V25.3771H24.8249V23.8879C24.8249 23.4467 25.005 23.1985 25.3393 23.1985C25.4423 23.1985 25.571 23.2261 25.6739 23.2536L25.8282 22.7021C25.7254 22.6745 25.571 22.6745 25.4681 22.6745ZM18.5736 24.0534C18.5736 24.8531 19.0881 25.4323 19.8857 25.4323C20.2458 25.4323 20.503 25.3496 20.7602 25.129L20.503 24.6602C20.2972 24.8256 20.0914 24.9083 19.8599 24.9083C19.4225 24.9083 19.1139 24.5774 19.1139 24.0534C19.1139 23.557 19.4225 23.226 19.8599 23.1985C20.0914 23.1985 20.2972 23.2811 20.503 23.4467L20.7602 22.9779C20.503 22.7571 20.2458 22.6745 19.8857 22.6745C19.0881 22.6745 18.5736 23.2536 18.5736 24.0534ZM23.5644 24.0534V22.7296H23.0242V23.0605C22.8441 22.8124 22.5868 22.6745 22.2524 22.6745C21.5578 22.6745 21.0176 23.2536 21.0176 24.0534C21.0176 24.8531 21.5578 25.4323 22.2524 25.4323C22.6125 25.4323 22.8698 25.2945 23.0242 25.0462V25.3771H23.5644V24.0534ZM21.5835 24.0534C21.5835 23.5845 21.8665 23.1985 22.3295 23.1985C22.7668 23.1985 23.0756 23.557 23.0756 24.0534C23.0756 24.5222 22.7668 24.9083 22.3295 24.9083C21.8665 24.8806 21.5835 24.5222 21.5835 24.0534ZM15.1264 22.6745C14.4061 22.6745 13.8915 23.226 13.8915 24.0534C13.8915 24.8808 14.406 25.4323 15.1521 25.4323C15.5122 25.4323 15.8725 25.322 16.1555 25.0739L15.8981 24.6602C15.6923 24.8256 15.4351 24.9359 15.1779 24.9359C14.8434 24.9359 14.509 24.7705 14.4318 24.3015H16.2584V24.081C16.2841 23.226 15.8211 22.6745 15.1264 22.6745ZM15.1263 23.1708C15.4607 23.1708 15.6923 23.3916 15.7437 23.8053H14.4574C14.5089 23.4467 14.7404 23.1708 15.1263 23.1708ZM28.5293 24.0534V21.6816H27.9891V23.0605C27.8089 22.8124 27.5517 22.6745 27.2173 22.6745C26.5227 22.6745 25.9825 23.2536 25.9825 24.0534C25.9825 24.8531 26.5227 25.4323 27.2173 25.4323C27.5775 25.4323 27.8347 25.2945 27.9891 25.0462V25.3771H28.5293V24.0534ZM26.5485 24.0534C26.5485 23.5845 26.8314 23.1985 27.2945 23.1985C27.7318 23.1985 28.0405 23.557 28.0405 24.0534C28.0405 24.5222 27.7318 24.9083 27.2945 24.9083C26.8314 24.8806 26.5485 24.5222 26.5485 24.0534ZM8.48906 24.0534V22.7296H7.94883V23.0605C7.76871 22.8124 7.51148 22.6745 7.17703 22.6745C6.48246 22.6745 5.94223 23.2536 5.94223 24.0534C5.94223 24.8531 6.48246 25.4323 7.17703 25.4323C7.53727 25.4323 7.79449 25.2945 7.94883 25.0462V25.3771H8.48906V24.0534ZM6.48246 24.0534C6.48246 23.5845 6.76547 23.1985 7.22848 23.1985C7.66582 23.1985 7.97461 23.557 7.97461 24.0534C7.97461 24.5222 7.66582 24.9083 7.22848 24.9083C6.76547 24.8806 6.48246 24.5222 6.48246 24.0534Z" fill="black"/>
<path d="M10.9336 2.625H19.0371V18.2344H10.9336V2.625Z" fill="#FF5F00"/>
<path d="M11.4479 10.4283C11.4479 7.25678 12.8371 4.44372 14.9722 2.62349C13.4031 1.29975 11.4223 0.5 9.26133 0.5C4.14176 0.5 0 4.94007 0 10.4283C0 15.9165 4.14176 20.3565 9.26121 20.3565C11.4221 20.3565 13.403 19.5568 14.9722 18.2329C12.8371 16.4403 11.4479 13.5997 11.4479 10.4283Z" fill="#EB001B"/>
<path d="M29.9693 10.4283C29.9693 15.9163 25.8275 20.3565 20.7081 20.3565C18.5471 20.3565 16.5663 19.5568 14.9971 18.2329C17.158 16.4128 18.5215 13.5997 18.5215 10.4283C18.5215 7.25678 17.1322 4.44372 14.9971 2.62349C16.5662 1.29975 18.5471 0.5 20.7081 0.5C25.8275 0.5 29.9693 4.96771 29.9693 10.4283Z" fill="#F79E1B"/>
</g>
<defs>
<clipPath id="clip0_1043_7806">
<rect width="30" height="25" fill="white" transform="translate(0 0.5)"/>
</clipPath>
</defs>
</svg>
