<svg width="24" height="24" viewBox="0 0 24 24" fill="none" xmlns="http://www.w3.org/2000/svg">
<g clip-path="url(#clip0_1254_8496)">
<path d="M12.0003 23.1431C18.1543 23.1431 23.1431 18.1543 23.1431 12.0003C23.1431 5.84625 18.1543 0.857422 12.0003 0.857422C5.84625 0.857422 0.857422 5.84625 0.857422 12.0003C0.857422 18.1543 5.84625 23.1431 12.0003 23.1431Z" stroke="black" stroke-width="1.71429" stroke-linecap="round" stroke-linejoin="round"/>
<path d="M9.42871 9.42885C9.42871 8.92027 9.57952 8.42311 9.86207 8.00024C10.1446 7.57737 10.5462 7.24779 11.0161 7.05316C11.486 6.85854 12.003 6.80761 12.5018 6.90683C13.0006 7.00605 13.4588 7.25096 13.8184 7.61058C14.178 7.9702 14.4229 8.42838 14.5222 8.92719C14.6214 9.426 14.5705 9.94303 14.3758 10.4129C14.1812 10.8828 13.8516 11.2844 13.4287 11.5669C13.0059 11.8495 12.5087 12.0003 12.0001 12.0003V13.7146" stroke="black" stroke-width="1.71429" stroke-linecap="round" stroke-linejoin="round"/>
<path d="M11.9996 16.2852C11.7453 16.2852 11.4967 16.3606 11.2853 16.5018C11.0738 16.6431 10.909 16.8439 10.8117 17.0788C10.7144 17.3138 10.689 17.5723 10.7386 17.8217C10.7882 18.0711 10.9106 18.3002 11.0904 18.48C11.2703 18.6598 11.4993 18.7823 11.7488 18.8319C11.9982 18.8815 12.2567 18.856 12.4916 18.7587C12.7265 18.6614 12.9273 18.4966 13.0686 18.2852C13.2099 18.0737 13.2853 17.8252 13.2853 17.5709C13.2809 17.2313 13.144 16.9068 12.9038 16.6666C12.6636 16.4265 12.3392 16.2896 11.9996 16.2852Z" fill="black"/>
</g>
<defs>
<clipPath id="clip0_1254_8496">
<rect width="24" height="24" fill="white"/>
</clipPath>
</defs>
</svg>
