<svg width="9" height="16" viewBox="0 0 9 16" fill="none" xmlns="http://www.w3.org/2000/svg">
<path fill-rule="evenodd" clip-rule="evenodd" d="M7.98443 12.3682H1.12891V14.1876V14.2722H1.1362C1.25227 14.9436 2.7393 15.4747 4.55667 15.4747C6.37403 15.4747 7.86107 14.9436 7.97714 14.2722H7.98443V14.1876V12.3682Z" fill="#D9D9D9"/>
<ellipse cx="4.55667" cy="12.5033" rx="3.42776" ry="1.46907" fill="#414040"/>
<ellipse cx="4.55958" cy="12.2797" rx="2.89356" ry="1.24648" fill="#4E4E4E"/>
<ellipse cx="4.55892" cy="12.1461" rx="2.53743" ry="1.11293" fill="white"/>
<rect x="3.08789" y="8.71973" width="2.93808" height="3.47235" fill="#5C5C5C"/>
<path fill-rule="evenodd" clip-rule="evenodd" d="M8.11583 5.86411C8.3003 5.41252 8.40198 4.91831 8.40198 4.40035C8.40198 2.26135 6.66801 0.527344 4.52905 0.527344C2.46186 0.527344 0.772944 2.14694 0.661933 4.18646C0.444931 5.8424 0.722645 8.29161 2.34651 9.65453C4.34085 11.3284 6.62007 8.74934 7.51039 7.25059C7.66589 6.95788 7.92401 6.4137 8.11583 5.86411Z" fill="white"/>
<path fill-rule="evenodd" clip-rule="evenodd" d="M7.6112 2.79016C7.48433 3.08717 7.39011 3.1151 7.14706 3.10228C6.56436 3.11715 5.49547 3.36728 5.02688 4.17058L5.00129 4.21448C4.38645 5.26911 3.76154 6.34103 2.40042 5.55068C1.47711 5.01456 1.02915 4.54483 0.86385 4.29257C0.444759 3.76253 0.794075 2.64246 1.6842 1.72402C2.21167 1.17977 2.81584 0.823126 3.33355 0.706567C3.33477 0.703574 3.336 0.700596 3.33727 0.697634C4.18303 0.475028 5.18309 0.461868 5.99621 0.809209C7.17485 1.31269 7.8783 2.03336 7.6112 2.79016Z" fill="#7D7B81"/>
<path d="M3.40197 1.19531L2.3781 2.17469L3.40197 2.7089M3.40197 2.7089L4.91553 1.19531M3.40197 2.7089L4.4922 3.28763L5.98392 1.81855C5.21546 2.57535 3.58004 4.13346 3.17939 4.80121M3.40197 2.7089L2.28906 3.82183" stroke="white" stroke-width="0.356135" stroke-linecap="round" stroke-linejoin="round"/>
</svg>
