<svg width="20" height="20" viewBox="0 0 20 20" fill="none" xmlns="http://www.w3.org/2000/svg">
<path d="M18.4864 9.86235L10.9395 2.31939L10.4337 1.81353C10.3184 1.69903 10.1625 1.63477 10.0001 1.63477C9.83762 1.63477 9.68175 1.69903 9.56649 1.81353L1.51375 9.86235C1.39565 9.98 1.30231 10.1201 1.23925 10.2744C1.17618 10.4287 1.14467 10.5941 1.14657 10.7608C1.15438 11.4483 1.72664 11.9971 2.41414 11.9971H3.24422V18.3584H16.7559V11.9971H17.6036C17.9376 11.9971 18.252 11.8663 18.4884 11.6299C18.6047 11.5139 18.6969 11.376 18.7596 11.2241C18.8223 11.0723 18.8543 10.9095 18.8536 10.7452C18.8536 10.4131 18.7227 10.0987 18.4864 9.86235ZM11.0938 16.9522H8.90633V12.9678H11.0938V16.9522ZM15.3497 10.5909V16.9522H12.3438V12.4991C12.3438 12.0674 11.9942 11.7178 11.5626 11.7178H8.43758C8.00594 11.7178 7.65633 12.0674 7.65633 12.4991V16.9522H4.65047V10.5909H2.77547L10.002 3.37017L10.4532 3.82134L17.2266 10.5909H15.3497Z" fill="white"/>
</svg>
