<svg width="24" height="24" viewBox="0 0 24 24" fill="none" xmlns="http://www.w3.org/2000/svg">
<g clip-path="url(#clip0_1220_7949)">
<path d="M19.9997 2H9.33301V5.33333H10.6663V3.33333H19.9997C20.3997 3.33333 20.6663 3.6 20.6663 4V11.3333C20.6663 11.7333 20.3997 12 19.9997 12H11.333V16.6667H7.79967L5.33301 18.6V16.6667H3.33301C2.93301 16.6667 2.66634 16.4 2.66634 16V8.66667C2.66634 8.26667 2.93301 8 3.33301 8H11.9997V6.66667H3.33301C2.19967 6.66667 1.33301 7.53333 1.33301 8.66667V16C1.33301 17.1333 2.19967 18 3.33301 18H3.99967V21.4L8.19967 18H12.6663V13.3333H19.9997C21.133 13.3333 21.9997 12.4667 21.9997 11.3333V4C21.9997 2.86667 21.133 2 19.9997 2Z" fill="black"/>
<path d="M4.13379 15.2673H5.73379L6.13379 14.2007H8.20046L8.60046 15.2673H10.2005L7.93379 9.33398H6.33379L4.13379 15.2673ZM7.13379 11.0007L7.80046 13.0673H6.46712L7.13379 11.0007Z" fill="black"/>
<path d="M13.333 11.3333C14.0663 11.3333 15.0663 11.1333 15.9997 10.6667C16.933 11.1333 17.9997 11.3333 18.6663 11.3333V10C18.6663 10 17.9997 10 17.2663 9.73333C18.0663 8.93333 18.6663 7.73333 18.6663 6V5.33333H16.6663V4H15.333V5.33333H13.333V6.66667H17.2663C17.133 7.86667 16.5997 8.6 15.9997 9.06667C15.5997 8.73333 15.1997 8.26667 14.933 7.66667H13.533C13.7997 8.53333 14.1997 9.2 14.733 9.73333C14.0663 10 13.4663 10 13.333 10V11.3333Z" fill="black"/>
</g>
<defs>
<clipPath id="clip0_1220_7949">
<rect width="24" height="24" fill="white"/>
</clipPath>
</defs>
</svg>
