<svg width="17" height="16" viewBox="0 0 17 16" fill="none" xmlns="http://www.w3.org/2000/svg">
<path d="M3.5 2.50098C3.5 2.36837 3.55268 2.24119 3.64645 2.14742C3.74021 2.05366 3.86739 2.00098 4 2.00098H9C9.13261 2.00098 9.25979 2.05366 9.35355 2.14742C9.44732 2.24119 9.5 2.36837 9.5 2.50098V7.50098C9.5 7.63358 9.44732 7.76076 9.35355 7.85453C9.25979 7.9483 9.13261 8.00098 9 8.00098H4C3.86739 8.00098 3.74021 7.9483 3.64645 7.85453C3.55268 7.76076 3.5 7.63358 3.5 7.50098V2.50098Z" fill="#F1EDED"/>
<path d="M1.5 2.00098C1.5 1.47054 1.71071 0.961836 2.08579 0.586763C2.46086 0.21169 2.96957 0.000976563 3.5 0.000976563L9.5 0.000976562C10.0304 0.000976563 10.5391 0.21169 10.9142 0.586763C11.2893 0.961836 11.5 1.47054 11.5 2.00098V10.001C12.0304 10.001 12.5391 10.2117 12.9142 10.5868C13.2893 10.9618 13.5 11.4705 13.5 12.001V12.501C13.5 12.6336 13.5527 12.7608 13.6464 12.8545C13.7402 12.9483 13.8674 13.001 14 13.001C14.1326 13.001 14.2598 12.9483 14.3536 12.8545C14.4473 12.7608 14.5 12.6336 14.5 12.501V8.00098H14C13.8674 8.00098 13.7402 7.9483 13.6464 7.85453C13.5527 7.76076 13.5 7.63358 13.5 7.50098V4.37598C13.5 4.24337 13.5527 4.11619 13.6464 4.02242C13.7402 3.92866 13.8674 3.87598 14 3.87598H15.495C15.484 3.39998 15.442 2.98198 15.294 2.65398C15.2148 2.46326 15.0767 2.30281 14.9 2.19598C14.716 2.08598 14.436 2.00098 14 2.00098C13.8674 2.00098 13.7402 1.9483 13.6464 1.85453C13.5527 1.76076 13.5 1.63358 13.5 1.50098C13.5 1.36837 13.5527 1.24119 13.6464 1.14742C13.7402 1.05365 13.8674 1.00098 14 1.00098C14.564 0.999643 15.0347 1.11164 15.412 1.33698C15.795 1.56498 16.046 1.88798 16.206 2.24398C16.501 2.89898 16.5 3.70898 16.5 4.32498V7.49998C16.5001 7.56572 16.4873 7.63085 16.4622 7.69163C16.4372 7.7524 16.4003 7.80764 16.3539 7.85418C16.3075 7.90071 16.2523 7.93763 16.1916 7.96282C16.1308 7.98801 16.0657 8.00098 16 8.00098H15.5V12.501C15.5 12.8988 15.342 13.2803 15.0607 13.5616C14.7794 13.8429 14.3978 14.001 14 14.001C13.6022 14.001 13.2206 13.8429 12.9393 13.5616C12.658 13.2803 12.5 12.8988 12.5 12.501V12.001C12.5 11.7358 12.3946 11.4814 12.2071 11.2939C12.0196 11.1063 11.7652 11.001 11.5 11.001V15.001H12C12.1326 15.001 12.2598 15.0537 12.3536 15.1474C12.4473 15.2412 12.5 15.3684 12.5 15.501C12.5 15.6336 12.4473 15.7608 12.3536 15.8545C12.2598 15.9483 12.1326 16.001 12 16.001H1C0.867392 16.001 0.740215 15.9483 0.646447 15.8545C0.552678 15.7608 0.5 15.6336 0.5 15.501C0.5 15.3684 0.552678 15.2412 0.646447 15.1474C0.740215 15.0537 0.867392 15.001 1 15.001H1.5V2.00098ZM10.5 2.00098C10.5 1.73576 10.3946 1.48141 10.2071 1.29387C10.0196 1.10633 9.76521 1.00098 9.5 1.00098H3.5C3.23478 1.00098 2.98043 1.10633 2.79289 1.29387C2.60536 1.48141 2.5 1.73576 2.5 2.00098V15.001H10.5V2.00098Z" fill="#F1EDED"/>
</svg>
