<svg width="36" height="36" viewBox="0 0 36 36" fill="none" xmlns="http://www.w3.org/2000/svg">
<path d="M18 0.5C14.5388 0.5 11.1554 1.52636 8.27753 3.44928C5.39967 5.37221 3.15665 8.10533 1.83212 11.303C0.507582 14.5007 0.161024 18.0194 0.836265 21.4141C1.51151 24.8087 3.17822 27.9269 5.62564 30.3744C8.07306 32.8218 11.1913 34.4885 14.5859 35.1637C17.9806 35.839 21.4993 35.4924 24.697 34.1679C27.8947 32.8434 30.6278 30.6003 32.5507 27.7225C34.4737 24.8446 35.5 21.4612 35.5 18C35.5 13.3587 33.6563 8.90752 30.3744 5.62563C27.0925 2.34374 22.6413 0.5 18 0.5ZM27.3088 19.1188L12.3088 26.6188C12.1181 26.714 11.9063 26.7589 11.6935 26.7493C11.4806 26.7397 11.2737 26.6758 11.0925 26.5637C10.9112 26.4516 10.7617 26.295 10.658 26.1088C10.5543 25.9227 10.4999 25.7131 10.5 25.5V10.5C10.5001 10.287 10.5547 10.0776 10.6584 9.89159C10.7622 9.7056 10.9118 9.5492 11.093 9.43726C11.2742 9.32531 11.481 9.26152 11.6938 9.25193C11.9065 9.24235 12.1182 9.28729 12.3088 9.3825L27.3088 16.8825C27.5161 16.9864 27.6905 17.146 27.8123 17.3433C27.9341 17.5407 27.9987 17.7681 27.9987 18C27.9987 18.2319 27.9341 18.4593 27.8123 18.6567C27.6905 18.854 27.5161 19.0136 27.3088 19.1175" fill="#F8F8F8"/>
</svg>
