<svg width="16" height="16" viewBox="0 0 16 16" fill="none" xmlns="http://www.w3.org/2000/svg">
<path d="M2.31275 11.164C2.64275 10.5253 3.33942 10.0973 4.18208 10.2033C5.07317 10.3117 5.95697 10.4733 6.82875 10.6873C8.16875 11.022 9.34275 11.6653 10.2107 12.2527L10.5041 12.4567L10.7707 12.6533L11.0094 12.8373L11.2187 13.0067L11.3967 13.1573L11.5434 13.2853C12.1054 13.786 11.7234 14.604 11.0867 14.664L11.0121 14.6673H5.28275C4.16142 14.6673 3.22942 14.104 2.54675 13.25C2.03075 12.6053 1.98675 11.7947 2.31342 11.164H2.31275ZM12.6674 1.33398C13.2627 1.33398 13.5194 1.89398 13.6454 2.40732L13.6854 2.58598L13.7014 2.67132C13.7974 3.20265 13.8487 3.89932 13.8694 4.61532C13.9094 6.03198 13.8281 7.68332 13.6514 8.47865C13.3434 9.86665 12.8914 10.8313 12.3501 11.4127C11.7994 12.006 11.0554 12.2733 10.3694 11.93C9.84342 11.6673 9.52942 11.0427 9.35742 10.51C9.10638 9.73361 9.11035 8.89727 9.36875 8.12332C9.50875 7.70198 9.76075 7.36198 10.0381 7.03865L10.2801 6.76465C10.5747 6.43465 10.8701 6.10465 11.0714 5.70265C11.3647 5.11598 11.4447 4.47398 11.4694 3.82932L11.4787 3.44265L11.4847 3.06932L11.4887 2.97732L11.5021 2.79065C11.5654 2.07198 11.8114 1.33398 12.6674 1.33398Z" fill="#F1EDED"/>
</svg>
