<svg width="18" height="19" viewBox="0 0 18 19" fill="none" xmlns="http://www.w3.org/2000/svg">
<path d="M9 12.043C10.3807 12.043 11.5 10.9237 11.5 9.54297C11.5 8.16226 10.3807 7.04297 9 7.04297C7.61929 7.04297 6.5 8.16226 6.5 9.54297C6.5 10.9237 7.61929 12.043 9 12.043Z" stroke="white" stroke-width="1.5"/>
<path d="M10.4702 1.33565C10.1644 1.20898 9.77606 1.20898 8.9994 1.20898C8.22273 1.20898 7.8344 1.20898 7.52857 1.33565C7.32622 1.41941 7.14236 1.54223 6.9875 1.69709C6.83265 1.85194 6.70983 2.0358 6.62607 2.23815C6.5494 2.42398 6.51857 2.64148 6.5069 2.95732C6.50171 3.18564 6.43857 3.4089 6.32341 3.60613C6.20825 3.80335 6.04485 3.96807 5.84857 4.08482C5.64931 4.19652 5.42493 4.25574 5.19651 4.2569C4.96809 4.25807 4.74311 4.20115 4.54273 4.09148C4.26273 3.94315 4.06023 3.86148 3.8594 3.83482C3.42133 3.77721 2.97832 3.89591 2.62773 4.16482C2.36607 4.36732 2.17107 4.70315 1.78273 5.37565C1.3944 6.04815 1.1994 6.38398 1.1569 6.71315C1.12826 6.93019 1.14267 7.15075 1.19929 7.36223C1.25591 7.57371 1.35364 7.77195 1.4869 7.94565C1.61023 8.10565 1.78273 8.23982 2.05023 8.40815C2.4444 8.65565 2.69773 9.07732 2.69773 9.54232C2.69773 10.0073 2.4444 10.429 2.05023 10.6757C1.78273 10.8448 1.6094 10.979 1.4869 11.139C1.35364 11.3127 1.25591 11.5109 1.19929 11.7224C1.14267 11.9339 1.12826 12.1544 1.1569 12.3715C1.20023 12.6998 1.3944 13.0365 1.7819 13.709C2.17107 14.3815 2.36523 14.7173 2.62773 14.9198C2.80143 15.0531 2.99968 15.1508 3.21115 15.2074C3.42263 15.2641 3.64319 15.2785 3.86023 15.2498C4.06023 15.2232 4.26273 15.1415 4.54273 14.9932C4.74311 14.8835 4.96809 14.8266 5.19651 14.8277C5.42493 14.8289 5.64931 14.8881 5.84857 14.9998C6.25107 15.2332 6.49023 15.6623 6.5069 16.1273C6.51857 16.444 6.54857 16.6607 6.62607 16.8465C6.70983 17.0488 6.83265 17.2327 6.9875 17.3875C7.14236 17.5424 7.32622 17.6652 7.52857 17.749C7.8344 17.8757 8.22273 17.8757 8.9994 17.8757C9.77606 17.8757 10.1644 17.8757 10.4702 17.749C10.6726 17.6652 10.8564 17.5424 11.0113 17.3875C11.1662 17.2327 11.289 17.0488 11.3727 16.8465C11.4494 16.6607 11.4802 16.444 11.4919 16.1273C11.5086 15.6623 11.7477 15.2323 12.1502 14.9998C12.3495 14.8881 12.5739 14.8289 12.8023 14.8277C13.0307 14.8266 13.2557 14.8835 13.4561 14.9932C13.7361 15.1415 13.9386 15.2232 14.1386 15.2498C14.3556 15.2785 14.5762 15.2641 14.7876 15.2074C14.9991 15.1508 15.1974 15.0531 15.3711 14.9198C15.6336 14.7182 15.8277 14.3815 16.2161 13.709C16.6044 13.0365 16.7994 12.7007 16.8419 12.3715C16.8705 12.1544 16.8561 11.9339 16.7995 11.7224C16.7429 11.5109 16.6452 11.3127 16.5119 11.139C16.3886 10.979 16.2161 10.8448 15.9486 10.6765C15.7533 10.5578 15.5915 10.3915 15.4782 10.1931C15.365 9.99469 15.304 9.77075 15.3011 9.54232C15.3011 9.07732 15.5544 8.65565 15.9486 8.40899C16.2161 8.23982 16.3894 8.10565 16.5119 7.94565C16.6452 7.77195 16.7429 7.57371 16.7995 7.36223C16.8561 7.15075 16.8705 6.93019 16.8419 6.71315C16.7986 6.38482 16.6044 6.04815 16.2169 5.37565C15.8277 4.70315 15.6336 4.36732 15.3711 4.16482C15.1974 4.03156 14.9991 3.93383 14.7876 3.87721C14.5762 3.82058 14.3556 3.80618 14.1386 3.83482C13.9386 3.86148 13.7361 3.94315 13.4552 4.09148C13.255 4.201 13.0301 4.25784 12.8019 4.25667C12.5736 4.2555 12.3494 4.19637 12.1502 4.08482C11.9539 3.96807 11.7905 3.80335 11.6754 3.60613C11.5602 3.4089 11.4971 3.18564 11.4919 2.95732C11.4802 2.64065 11.4502 2.42398 11.3727 2.23815C11.289 2.0358 11.1662 1.85194 11.0113 1.69709C10.8564 1.54223 10.6726 1.41941 10.4702 1.33565Z" stroke="white" stroke-width="1.5"/>
</svg>
