<svg width="30" height="30" viewBox="0 0 30 30" fill="none" xmlns="http://www.w3.org/2000/svg">
<path d="M24.1721 12.048L8.77294 4.34579C8.16521 4.04322 7.47899 3.9355 6.80782 4.03732C6.13666 4.13915 5.51322 4.44556 5.02251 4.91479C4.53179 5.38401 4.19769 5.99321 4.06574 6.65933C3.93379 7.32545 4.01042 8.01607 4.28518 8.63702L6.92504 14.5457C6.98494 14.6886 7.01579 14.8419 7.01579 14.9968C7.01579 15.1518 6.98494 15.3051 6.92504 15.448L4.28518 21.3567C4.06156 21.8592 3.96703 22.4097 4.01017 22.958C4.05331 23.5064 4.23276 24.0353 4.53221 24.4966C4.83166 24.958 5.24161 25.3372 5.72481 25.5997C6.20801 25.8623 6.74914 25.9999 7.29902 26C7.81404 25.9949 8.3214 25.8746 8.78394 25.6479L24.1831 17.9457C24.7293 17.6708 25.1885 17.2495 25.5093 16.7288C25.8301 16.2081 26 15.6085 26 14.9968C26 14.3852 25.8301 13.7856 25.5093 13.2649C25.1885 12.7442 24.7293 12.3229 24.1831 12.048H24.1721ZM23.1932 15.9761L7.79399 23.6783C7.59178 23.7755 7.36472 23.8084 7.14325 23.7728C6.92178 23.7372 6.7165 23.6347 6.55492 23.479C6.39335 23.3234 6.2832 23.122 6.23926 22.902C6.19532 22.6819 6.21968 22.4537 6.30907 22.2479L8.93793 16.3392C8.97196 16.2603 9.00134 16.1795 9.02592 16.0972H16.6045C16.8962 16.0972 17.176 15.9812 17.3823 15.7749C17.5886 15.5685 17.7045 15.2887 17.7045 14.9968C17.7045 14.705 17.5886 14.4252 17.3823 14.2188C17.176 14.0125 16.8962 13.8965 16.6045 13.8965H9.02592C9.00134 13.8142 8.97196 13.7334 8.93793 13.6545L6.30907 7.74577C6.21968 7.53997 6.19532 7.31175 6.23926 7.09171C6.2832 6.87167 6.39335 6.67032 6.55492 6.51468C6.7165 6.35903 6.92178 6.25653 7.14325 6.2209C7.36472 6.18527 7.59178 6.21823 7.79399 6.31536L23.1932 14.0176C23.3733 14.1099 23.5245 14.2502 23.6301 14.423C23.7357 14.5958 23.7916 14.7943 23.7916 14.9968C23.7916 15.1994 23.7357 15.3979 23.6301 15.5707C23.5245 15.7435 23.3733 15.8838 23.1932 15.9761Z" fill="white"/>
</svg>
