<svg width="162" height="69" viewBox="0 0 162 69" fill="none" xmlns="http://www.w3.org/2000/svg">
<g filter="url(#filter0_d_339_6278)">
<path d="M47.546 4.49815C31.0709 9.89451 20.9456 6.74664 17.9424 4.49815C21.3747 8.2456 32.4868 14.2415 49.4767 8.24554C66.4666 2.24959 89.1627 9.24492 98.387 13.4921C87.4465 5.99714 68.1398 -2.2473 47.546 4.49815Z" fill="#FF0000"/>
<path d="M9.85905 46.3125C9.77242 46.3988 9.65252 46.4916 9.49935 46.5911C9.33953 46.6905 9.1764 46.7866 9.00994 46.8794C8.97665 46.8992 8.88676 46.9523 8.74027 47.0384C8.59378 47.1246 8.46726 47.2041 8.3607 47.2771C8.25414 47.35 8.16755 47.4196 8.1009 47.486C7.65441 47.9307 7.32087 48.4255 7.10028 48.9704C6.87971 49.5086 6.76881 50.077 6.76758 50.6755C6.76581 51.5401 6.99027 52.3486 7.44096 53.101C7.88502 53.8468 8.53554 54.4467 9.39253 54.9007C10.2495 55.348 11.2666 55.5729 12.4437 55.5753C13.6475 55.5778 14.702 55.3638 15.6074 54.9334C16.5061 54.4963 17.2023 53.8792 17.6961 53.0822C18.1833 52.2784 18.4279 51.3445 18.4301 50.2805C18.4319 49.376 18.2474 48.5742 17.8764 47.8752C17.4987 47.1694 16.9446 46.623 16.2138 46.2357L16.2846 45.7471L18.1699 45.8407C18.574 46.5664 18.8982 47.4051 19.1423 48.3566C19.3798 49.3015 19.4977 50.1829 19.496 51.0009C19.4934 52.3044 19.2216 53.481 18.6808 54.5307C18.1399 55.5803 17.3667 56.4067 16.3613 57.0099C15.3558 57.613 14.1814 57.9132 12.838 57.9105C11.5677 57.9079 10.4112 57.5962 9.36832 56.9756C8.32546 56.355 7.5026 55.4754 6.89974 54.3369C6.29687 53.1984 5.99697 51.8843 6.00002 50.3946C6.00282 49.0313 6.27833 47.6485 6.82654 46.2464L9.84006 45.8436L9.85905 46.3125Z" fill="#F1EDED"/>
<path d="M9.88822 32.0871C9.80158 32.1733 9.68168 32.2662 9.52852 32.3656C9.3687 32.4651 9.20557 32.5612 9.03911 32.6539C9.00582 32.6738 8.91593 32.7268 8.76944 32.813C8.62295 32.8992 8.49643 32.9787 8.38987 33.0516C8.28331 33.1246 8.19671 33.1942 8.13007 33.2606C7.68358 33.7053 7.35003 34.2 7.12945 34.7449C6.90888 35.2832 6.79798 35.8516 6.79675 36.4501C6.79498 37.3147 7.01944 38.1232 7.47013 38.8756C7.91419 39.6214 8.56471 40.2213 9.4217 40.6753C10.2787 41.1226 11.2958 41.3475 12.4729 41.3499C13.6766 41.3524 14.7312 41.1384 15.6365 40.708C16.5353 40.2709 17.2315 39.6538 17.7253 38.8567C18.2124 38.053 18.4571 37.1191 18.4593 36.055C18.4611 35.1506 18.2765 34.3488 17.9056 33.6497C17.5279 32.944 16.9737 32.3975 16.243 32.0103L16.3138 31.5216L18.199 31.6153C18.6032 32.341 18.9274 33.1797 19.1715 34.1312C19.409 35.076 19.5269 35.9575 19.5252 36.7755C19.5225 38.079 19.2508 39.2556 18.7099 40.3052C18.1691 41.3549 17.3959 42.1813 16.3905 42.7845C15.385 43.3876 14.2106 43.6878 12.8672 43.685C11.5969 43.6824 10.4404 43.3708 9.39749 42.7502C8.35463 42.1295 7.53177 41.25 6.92891 40.1115C6.32604 38.973 6.02614 37.6589 6.02919 36.1692C6.03199 34.8059 6.30749 33.4231 6.85571 32.021L9.86923 31.6182L9.88822 32.0871Z" fill="#F1EDED"/>
<path d="M24.4842 59.4604V30.5004H31.9924C33.9469 30.5004 35.6154 30.7268 36.9978 31.1797C38.4041 31.6087 39.4767 32.3834 40.2156 33.5036C40.9783 34.6239 41.3597 36.1732 41.3597 38.1516C41.3597 39.3433 41.2525 40.404 41.0379 41.3336C40.8473 42.2393 40.4897 43.0378 39.9653 43.729C39.4648 44.3964 38.7497 44.9327 37.8202 45.3379L41.8245 59.4604H35.7822L32.4572 46.339H30.3835V59.4604H24.4842ZM30.3835 42.8352H32.0996C33.0531 42.8352 33.8039 42.6803 34.3521 42.3704C34.9003 42.0606 35.2817 41.5958 35.4962 40.9761C35.7346 40.3325 35.8537 39.5459 35.8537 38.6163C35.8537 37.2816 35.6035 36.2686 35.1029 35.5773C34.6262 34.8623 33.7205 34.5047 32.3857 34.5047H30.3835V42.8352Z" fill="#F1EDED"/>
<path d="M51.0491 59.4604V30.5004H63.67V34.5762H56.9484V42.2632H62.1326V46.3748H56.9484V55.4561H63.7415V59.4604H51.0491Z" fill="#F1EDED"/>
<path d="M72.4465 59.4604V30.5004H76.5582L82.9937 45.5882V30.5004H87.8561V59.4604H83.9233L77.4877 43.443V59.4604H72.4465Z" fill="#F1EDED"/>
<path d="M100.681 59.4604V34.898H96.2121V30.5004H111.014V34.898H106.616V59.4604H100.681Z" fill="#F1EDED"/>
<path d="M116.919 59.4604L122.532 30.5004H129.075L134.652 59.4604H129.182L128.145 53.0964H123.569L122.46 59.4604H116.919ZM124.105 49.4853H127.573L125.821 37.794L124.105 49.4853Z" fill="#F1EDED"/>
<path d="M143.308 59.4604V30.5004H149.207V55.4561H156V59.4604H143.308Z" fill="#F1EDED"/>
<path d="M45.3957 19.5886C19.8577 12.0729 9.64253 20.3113 7.72718 25.3699C7.72718 17.4206 27.5191 8.02609 56.2493 17.4207C84.9796 26.8153 93.9178 18.1434 120.733 19.5886C142.185 20.7449 151.378 25.37 153.294 27.538C133.502 19.5887 100.941 23.9247 88.8102 25.37C76.6797 26.8153 77.3182 28.9832 45.3957 19.5886Z" fill="#F1EDED"/>
</g>
<defs>
<filter id="filter0_d_339_6278" x="0.892405" y="0.723101" width="160.215" height="67.6752" filterUnits="userSpaceOnUse" color-interpolation-filters="sRGB">
<feFlood flood-opacity="0" result="BackgroundImageFix"/>
<feColorMatrix in="SourceAlpha" type="matrix" values="0 0 0 0 0 0 0 0 0 0 0 0 0 0 0 0 0 0 127 0" result="hardAlpha"/>
<feOffset dy="3.8307"/>
<feGaussianBlur stdDeviation="2.5538"/>
<feComposite in2="hardAlpha" operator="out"/>
<feColorMatrix type="matrix" values="0 0 0 0 0 0 0 0 0 0 0 0 0 0 0 0 0 0 0.25 0"/>
<feBlend mode="normal" in2="BackgroundImageFix" result="effect1_dropShadow_339_6278"/>
<feBlend mode="normal" in="SourceGraphic" in2="effect1_dropShadow_339_6278" result="shape"/>
</filter>
</defs>
</svg>
