<svg width="20" height="19" viewBox="0 0 20 19" fill="none" xmlns="http://www.w3.org/2000/svg">
<path fill-rule="evenodd" clip-rule="evenodd" d="M2.97277 0.542969C1.37194 0.542969 0.0742188 1.8407 0.0742188 3.44152V15.3256C0.0742188 16.9264 1.37194 18.2241 2.97277 18.2241H17.0282C18.629 18.2241 19.9267 16.9264 19.9267 15.3256V3.44152C19.9267 1.84069 18.629 0.542969 17.0282 0.542969H2.97277ZM3.83959 2.86101C3.11922 2.86101 2.53524 3.44499 2.53524 4.16536C2.53524 4.88573 3.11922 5.46971 3.83959 5.46971H16.3034C17.0237 5.46971 17.6077 4.88573 17.6077 4.16536C17.6077 3.44499 17.0237 2.86101 16.3034 2.86101H3.83959Z" fill="#D9D9D9"/>
<path fill-rule="evenodd" clip-rule="evenodd" d="M2.94657 10.7407C2.68654 11.112 2.39268 11.5317 2.39268 12.4802C2.39268 12.8117 2.36972 13.212 2.34528 13.6382C2.25209 15.2629 2.13729 17.2644 3.19005 17.2644C4.519 17.2644 4.78491 17.2644 5.0507 16.2013H10.048V16.2014H15.098C15.3638 17.2645 15.6297 17.2645 16.9586 17.2645C18.0114 17.2645 17.8966 15.263 17.8034 13.6383C17.7789 13.212 17.756 12.8117 17.756 12.4803C17.756 11.5318 17.4621 11.1121 17.2021 10.7408C17.1124 10.6126 17.0267 10.4903 16.9585 10.3539C17.0914 10.221 17.2908 10.1546 17.4901 10.0881C17.6894 10.0217 17.8887 9.95523 18.0217 9.82233C18.2874 9.55654 17.4901 9.29075 16.9585 9.29075C16.5332 9.29075 16.427 9.91093 16.427 10.0881C16.403 10.04 16.3606 9.93571 16.2989 9.78373C16.1333 9.37608 15.8284 8.62542 15.3638 7.6961C14.7296 6.4278 11.5913 6.45537 10.0747 6.62983C8.55834 6.4553 5.41915 6.42753 4.78491 7.69602C4.32024 8.62535 4.01536 9.37601 3.84979 9.78366C3.78807 9.93563 3.74571 10.0399 3.72165 10.088C3.72165 9.91085 3.61544 9.29067 3.19017 9.29067C2.65859 9.29067 1.86122 9.55646 2.12701 9.82225C2.25991 9.95515 2.45924 10.0216 2.65858 10.0881C2.8579 10.1545 3.05723 10.2209 3.19017 10.3538C3.12197 10.4902 3.03628 10.6126 2.94657 10.7407Z" fill="#030218"/>
<path d="M5.05015 11.948L3.45541 11.1506C3.03014 10.938 2.92383 11.4164 2.92383 11.6822C2.92383 12.4796 3.45541 12.7454 4.78436 12.7454C5.84752 12.7454 5.40453 12.2138 5.05015 11.948Z" fill="#F1EDED" stroke="black" stroke-width="0.26579" stroke-linecap="round"/>
<path d="M15.0983 11.948L16.693 11.1506C17.1183 10.938 17.2246 11.4164 17.2246 11.6822C17.2246 12.4796 16.693 12.7454 15.3641 12.7454C14.3009 12.7454 14.7439 12.2138 15.0983 11.948Z" fill="#F1EDED" stroke="black" stroke-width="0.26579" stroke-linecap="round"/>
<path fill-rule="evenodd" clip-rule="evenodd" d="M10.0754 14.0742H5.61885C5.43316 14.0742 5.11748 14.1946 5.34031 14.6762C5.61885 15.2782 6.17599 15.5791 6.45452 15.5791L10.0203 15.5792H13.6413C13.9198 15.5792 14.4769 15.2782 14.7555 14.6762C14.9783 14.1946 14.6626 14.0742 14.4769 14.0742L10.0754 14.0742Z" fill="#F1EDED"/>
<path d="M10.0754 14.0742V14.0476V14.0742ZM5.34031 14.6762L5.36443 14.665L5.34031 14.6762ZM6.45452 15.5791V15.5526V15.5791ZM10.0203 15.5792V15.6057V15.5792ZM14.7555 14.6762L14.7313 14.665L14.7555 14.6762ZM14.4769 14.0742V14.1008V14.0742ZM5.61885 14.1008H10.0754V14.0476H5.61885V14.1008ZM5.36443 14.665C5.25515 14.4288 5.28184 14.2906 5.34691 14.2115C5.41401 14.1299 5.52984 14.1008 5.61885 14.1008V14.0476C5.52217 14.0476 5.38732 14.0787 5.30586 14.1777C5.22237 14.2792 5.20265 14.442 5.31619 14.6874L5.36443 14.665ZM6.45452 15.5526C6.32292 15.5526 6.11941 15.4806 5.91295 15.3318C5.70733 15.1837 5.50158 14.9614 5.36443 14.665L5.31619 14.6874C5.45758 14.9929 5.66967 15.2221 5.88188 15.375C6.09326 15.5272 6.30759 15.6057 6.45452 15.6057V15.5526ZM10.0203 15.5526L6.45452 15.5526V15.6057L10.0203 15.6057V15.5526ZM10.0203 15.6057H13.6413V15.5526H10.0203V15.6057ZM13.6413 15.6057C13.7882 15.6057 14.0025 15.5272 14.2139 15.375C14.4261 15.2221 14.6382 14.9929 14.7796 14.6874L14.7313 14.665C14.5942 14.9614 14.3885 15.1837 14.1828 15.3318C13.9764 15.4806 13.7729 15.5526 13.6413 15.5526V15.6057ZM14.7796 14.6874C14.8931 14.442 14.8734 14.2792 14.7899 14.1777C14.7085 14.0787 14.5736 14.0476 14.4769 14.0476V14.1008C14.5659 14.1008 14.6818 14.1299 14.7489 14.2115C14.8139 14.2906 14.8406 14.4288 14.7313 14.665L14.7796 14.6874ZM14.4769 14.0476L10.0754 14.0476V14.1008L14.4769 14.1008V14.0476Z" fill="black"/>
<path fill-rule="evenodd" clip-rule="evenodd" d="M10.0488 7.43164H13.2383C13.5927 7.43164 14.3546 7.53796 14.5672 7.96322C14.617 8.06272 14.6947 8.19948 14.7846 8.3578C15.1752 9.04526 15.7967 10.1393 15.3646 10.3553H10.1014V10.3553H4.78546C4.35339 10.1393 4.97491 9.04527 5.36545 8.35781C5.45539 8.19949 5.53308 8.06274 5.58283 7.96323C5.79546 7.53797 6.55739 7.43165 6.91178 7.43165H10.0488V7.43164Z" fill="#F1EDED"/>
<path d="M10.0488 7.43164V7.29875H9.91591V7.43164H10.0488ZM14.5672 7.96322L14.4484 8.02265V8.02265L14.5672 7.96322ZM14.7846 8.3578L14.9002 8.29215L14.9002 8.29215L14.7846 8.3578ZM15.3646 10.3553V10.4882H15.396L15.424 10.4742L15.3646 10.3553ZM10.1014 10.3553V10.2224H9.96848V10.3553H10.1014ZM10.1014 10.3553V10.4882H10.2343V10.3553H10.1014ZM4.78546 10.3553L4.72603 10.4742L4.75409 10.4882H4.78546V10.3553ZM5.36545 8.35781L5.2499 8.29216L5.36545 8.35781ZM5.58283 7.96323L5.7017 8.02266L5.58283 7.96323ZM10.0488 7.43165V7.56455H10.1817V7.43165H10.0488ZM13.2383 7.29875H10.0488V7.56454H13.2383V7.29875ZM14.6861 7.90379C14.5544 7.64042 14.265 7.4933 13.9947 7.41085C13.7182 7.32651 13.4257 7.29875 13.2383 7.29875V7.56454C13.4053 7.56454 13.6709 7.58993 13.9171 7.66507C14.1696 7.74209 14.3674 7.86076 14.4484 8.02265L14.6861 7.90379ZM14.9002 8.29215C14.8094 8.13247 14.7339 7.99937 14.6861 7.90379L14.4484 8.02265C14.5001 8.12607 14.5799 8.26649 14.6691 8.42344L14.9002 8.29215ZM15.424 10.4742C15.5977 10.3874 15.6483 10.2145 15.644 10.0454C15.6398 9.87836 15.5837 9.68261 15.507 9.48521C15.3526 9.08792 15.0942 8.63363 14.9002 8.29215L14.6691 8.42344C14.8656 8.76942 15.1132 9.20588 15.2592 9.58149C15.3327 9.77053 15.3753 9.93176 15.3783 10.0521C15.3813 10.1704 15.3476 10.2153 15.3052 10.2365L15.424 10.4742ZM10.1014 10.4882H15.3646V10.2224H10.1014V10.4882ZM9.96848 10.3553V10.3553H10.2343V10.3553H9.96848ZM10.1014 10.2224H4.78546V10.4882H10.1014V10.2224ZM4.8449 10.2365C4.80251 10.2153 4.76877 10.1704 4.77174 10.0521C4.77476 9.93177 4.81737 9.77054 4.89084 9.5815C5.03682 9.20589 5.28445 8.76943 5.481 8.42345L5.2499 8.29216C5.05591 8.63364 4.79751 9.08793 4.64311 9.48522C4.56639 9.68262 4.51023 9.87837 4.50603 10.0454C4.50179 10.2145 4.55238 10.3874 4.72603 10.4742L4.8449 10.2365ZM5.481 8.42345C5.57016 8.2665 5.64999 8.12609 5.7017 8.02266L5.46397 7.9038C5.41618 7.99938 5.34062 8.13248 5.2499 8.29216L5.481 8.42345ZM5.7017 8.02266C5.78264 7.86077 5.98048 7.7421 6.23293 7.66508C6.4792 7.58995 6.74481 7.56455 6.91178 7.56455V7.29876C6.72437 7.29876 6.43182 7.32652 6.15537 7.41086C5.8851 7.49331 5.59565 7.64043 5.46397 7.9038L5.7017 8.02266ZM6.91178 7.56455H10.0488V7.29876H6.91178V7.56455ZM9.91591 7.43164V7.43165H10.1817V7.43164H9.91591Z" fill="black"/>
<path fill-rule="evenodd" clip-rule="evenodd" d="M10.0476 12.4805H14.3002V13.012C13.0833 13.2728 10.57 13.7383 10.0739 13.5549C9.57793 13.7383 7.06462 13.2728 5.84766 13.0121V12.4805H10.0476V12.4805Z" fill="#F1EDED"/>
<path d="M14.3002 12.4805H14.3268V12.4539H14.3002V12.4805ZM10.0476 12.4805V12.4539H10.021V12.4805H10.0476ZM14.3002 13.012L14.3058 13.038L14.3268 13.0335V13.012H14.3002ZM10.0739 13.5549L10.0832 13.53L10.0739 13.5266L10.0647 13.53L10.0739 13.5549ZM5.84766 13.0121H5.82108V13.0335L5.84209 13.038L5.84766 13.0121ZM5.84766 12.4805V12.4539H5.82108V12.4805H5.84766ZM10.0476 12.4805V12.5071H10.0742V12.4805H10.0476ZM14.3002 12.4539H10.0476V12.507H14.3002V12.4539ZM14.3268 13.012V12.4805H14.2737V13.012H14.3268ZM10.0647 13.5799C10.1309 13.6043 10.2279 13.6172 10.3471 13.6215C10.4669 13.6259 10.6115 13.6216 10.7742 13.6106C11.0997 13.5886 11.4992 13.5394 11.9207 13.4763C12.7638 13.3502 13.697 13.1685 14.3058 13.038L14.2947 12.9861C13.6865 13.1164 12.7546 13.2978 11.9128 13.4238C11.4919 13.4867 11.094 13.5358 10.7707 13.5576C10.609 13.5685 10.4663 13.5726 10.349 13.5684C10.2311 13.5641 10.141 13.5514 10.0832 13.53L10.0647 13.5799ZM10.0647 13.53C10.0069 13.5514 9.91683 13.5641 9.79889 13.5684C9.68158 13.5727 9.53896 13.5685 9.37726 13.5576C9.0539 13.5358 8.65601 13.4867 8.23509 13.4238C7.39335 13.2978 6.46135 13.1164 5.85323 12.9861L5.84209 13.038C6.45093 13.1685 7.38407 13.3502 8.22722 13.4763C8.64876 13.5394 9.04825 13.5887 9.37368 13.6107C9.53637 13.6217 9.68099 13.6259 9.80082 13.6215C9.92002 13.6172 10.017 13.6043 10.0832 13.5799L10.0647 13.53ZM5.87424 13.0121V12.4805H5.82108V13.0121H5.87424ZM5.84766 12.5071H10.0476V12.4539H5.84766V12.5071ZM10.021 12.4805V12.4805H10.0742V12.4805H10.021Z" fill="black"/>
<ellipse cx="4.25424" cy="14.3421" rx="0.531579" ry="0.531579" fill="#F1EDED"/>
<ellipse cx="0.531579" cy="0.531579" rx="0.531579" ry="0.531579" transform="matrix(-1 0 0 1 16.4277 13.8105)" fill="#F1EDED"/>
<path d="M13.2373 7.60547H11.6426L12.9715 10.2634H14.3005L13.2373 7.60547Z" fill="#030218" stroke="black" stroke-width="0.26579" stroke-linecap="round"/>
<path d="M10.8462 7.60547H10.0488L11.3778 10.2634H11.9094L10.8462 7.60547Z" fill="#030218" stroke="black" stroke-width="0.26579" stroke-linecap="round"/>
</svg>
