<svg width="32" height="14" viewBox="0 0 32 14" fill="none" xmlns="http://www.w3.org/2000/svg">
<path d="M12.2936 0.179364L8.26111 10.0024H5.63036L3.64592 2.16269C3.52561 1.68099 3.42106 1.50371 3.05495 1.30002C2.45651 0.968076 1.46827 0.657628 0.599609 0.464504L0.658202 0.179364H4.89368C5.43268 0.179364 5.91802 0.545833 6.04146 1.18036L7.08999 6.86511L9.67863 0.179364H12.2936ZM15.8501 0.179364L13.7924 10.0024H11.3033L13.3613 0.179364H15.8501ZM22.6015 6.79521C22.6119 4.20315 19.0915 4.05929 19.1145 2.90116C19.1229 2.54906 19.4514 2.17424 20.1704 2.07841C20.5265 2.03136 21.5104 1.99389 22.6249 2.51823L23.0609 0.433914C22.4621 0.21278 21.6915 0 20.7329 0C18.2726 0 16.5419 1.33442 16.528 3.24674C16.5119 4.66126 17.7642 5.4496 18.706 5.92074C19.6761 6.40183 20.0014 6.71105 19.997 7.14103C19.99 7.80014 19.2222 8.09191 18.5084 8.10272C17.2566 8.12299 16.531 7.75726 15.9522 7.48195L15.5004 9.6353C16.0827 9.90779 17.1559 10.1445 18.2675 10.1566C20.8831 10.1566 22.5938 8.83738 22.6015 6.79521ZM29.0984 10.0025H31.3996L29.3892 0.179364H27.266C26.7872 0.179364 26.3847 0.463153 26.2062 0.899402L22.4717 10.0024H25.0852L25.6037 8.53504H28.7968L29.0984 10.0025ZM26.3204 6.52223L27.6308 2.83334L28.3836 6.52223H26.3204ZM19.0355 12.7064H18.0241V13.6674H19.1553V13.9564H17.6834V11.2901H19.0973V11.5791H18.0241V12.4215H19.0353L19.0355 12.7064ZM19.6778 11.1479H20.0185V13.9563H19.6778V11.1479ZM20.8783 13.0623C20.886 13.5332 21.1767 13.7269 21.5212 13.7269C21.7655 13.7269 21.9165 13.6834 22.0406 13.6281L22.1025 13.8774C21.9824 13.9327 21.7733 13.9999 21.4748 13.9999C20.8978 13.9999 20.5531 13.6083 20.5531 13.0307C20.5531 12.4533 20.886 12.0022 21.4323 12.0022C22.0483 12.0022 22.2071 12.5483 22.2071 12.9002C22.2071 12.9714 22.2032 13.0227 22.1953 13.0624L20.8783 13.0623ZM21.8777 12.8131C21.8817 12.5957 21.7887 12.2514 21.4051 12.2514C21.0565 12.2514 20.9092 12.5718 20.882 12.8131H21.8777ZM24.0619 13.8891C23.9728 13.9327 23.7752 14 23.5235 14C22.9579 14 22.5898 13.6083 22.5898 13.0228C22.5898 12.4334 22.9848 12.0023 23.597 12.0023C23.7984 12.0023 23.9766 12.0535 24.0696 12.1051L23.9923 12.3701C23.9106 12.3266 23.7829 12.279 23.597 12.279C23.1669 12.279 22.9347 12.6073 22.9347 13.0032C22.9347 13.4461 23.2135 13.719 23.5854 13.719C23.7791 13.719 23.9069 13.6716 24.0038 13.6281L24.0619 13.8891ZM25.0181 11.5829V12.0417H25.5061V12.3066H25.0181V13.3392C25.0181 13.5768 25.084 13.7111 25.2738 13.7111C25.3667 13.7111 25.421 13.7033 25.4715 13.6872L25.487 13.9526C25.421 13.9762 25.3165 13.9999 25.1847 13.9999C25.0258 13.9999 24.8979 13.9445 24.8167 13.8537C24.7237 13.7467 24.685 13.5768 24.685 13.3512V12.3066H24.3943V12.0417H24.685V11.6857L25.0181 11.5829ZM25.9822 12.6392C25.9822 12.4136 25.9781 12.2199 25.9667 12.0417H26.265L26.2807 12.4213H26.292C26.3774 12.1645 26.5864 12.0022 26.8149 12.0022C26.8499 12.0022 26.8771 12.0062 26.9081 12.01V12.3385C26.8732 12.3304 26.8384 12.3304 26.7916 12.3304C26.5517 12.3304 26.381 12.5124 26.3347 12.7737C26.3267 12.8274 26.3228 12.8816 26.323 12.9359V13.9565H25.9822V12.6392ZM29.0033 12.9832C29.0033 13.6913 28.519 13.9999 28.0697 13.9999C27.566 13.9999 27.171 13.62 27.171 13.015C27.171 12.378 27.5855 12.0023 28.1008 12.0023C28.6392 12.0023 29.0033 12.4014 29.0033 12.9832ZM27.5195 13.0032C27.5195 13.4225 27.752 13.7391 28.0851 13.7391C28.4107 13.7391 28.6546 13.4263 28.6546 12.9952C28.6546 12.6709 28.4957 12.2632 28.0928 12.2632C27.694 12.2632 27.5195 12.6432 27.5195 13.0032ZM29.5257 12.56C29.5257 12.3584 29.5217 12.2001 29.5101 12.042H29.8123L29.8317 12.3584H29.8394C29.9324 12.1803 30.1493 12.0024 30.4592 12.0024C30.7186 12.0024 31.1217 12.1607 31.1217 12.8171V13.9565H30.7808V12.8528C30.7808 12.5444 30.6685 12.2871 30.347 12.2871C30.1261 12.2871 29.9516 12.4494 29.8899 12.6431C29.8743 12.6867 29.8666 12.7459 29.8666 12.8054V13.9565H29.5257V12.56Z" fill="#1A1F71"/>
</svg>
